<svg id="Layer_1" data-name="Layer 1" xmlns="http://www.w3.org/2000/svg" viewBox="0 0 1500 1000"><defs><style>.cls-1{fill:#999;}</style></defs><path class="cls-1" d="M295.22,153.31a2.35,2.35,0,1,1,2.35,2.46A2.35,2.35,0,0,1,295.22,153.31Z"/><path class="cls-1" d="M309,141.33h2l.2,2.37h.12c1.48-1.53,3.1-2.72,5.3-2.72,3.34,0,4.88,2,4.88,5.68v8.76H319V147c0-2.67-.93-3.91-3.22-3.91-1.68,0-2.81.84-4.44,2.52v9.83H309Z"/><path class="cls-1" d="M332.8,143.27h-6.52v-1.94h8.93v14.09H332.8Zm-.95-6.76a1.92,1.92,0,1,1,1.91,1.86A1.81,1.81,0,0,1,331.85,136.51Z"/><path class="cls-1" d="M344.11,134.77h2.41v13.95h.12l7.57-7.39H357l-10.44,10.26v3.83h-2.41Zm5.43,13.17,1.45-1.57,6.73,9h-2.67Z"/><path class="cls-1" d="M367.6,143.27h-6.52v-1.94H370v14.09H367.6Zm-1-6.76a1.92,1.92,0,1,1,1.91,1.86A1.81,1.81,0,0,1,366.65,136.51Z"/><path class="cls-1" d="M400.66,156c0-2.11.29-3.65.29-5.59,0-1.14-.78-2.24-4.2-2.27V146.6c3.42,0,4.2-1.13,4.2-2.26,0-1.83-.29-3.59-.29-5.6,0-3,1.74-3.85,5.37-3.85h1.8v1.36h-1.51c-3,0-3.6.75-3.6,2.64,0,1.65.18,3.45.18,5.25s-.64,2.81-2.64,3.16v.12c2,.35,2.64,1.27,2.64,3.16s-.18,3.48-.18,5.25.64,2.64,3.6,2.64h1.51v1.36H406C402.4,159.83,400.66,159,400.66,156Z"/><path class="cls-1" d="M327.57,169.57H330v5.63l-.14,3.33h.09a7.08,7.08,0,0,1,5.25-2.75c3.33,0,4.87,2,4.87,5.68v8.76h-2.41v-8.44c0-2.67-.93-3.91-3.22-3.91-1.68,0-2.81.84-4.44,2.52v9.83h-2.4Z"/><path class="cls-1" d="M344.24,183.15a7.08,7.08,0,0,1,7.19-7.37c4.06,0,6.44,2.64,6.44,6.61a9.64,9.64,0,0,1-.11,1.45H345.84V182h10.5l-.61.67c0-3.33-1.66-5-4.24-5s-4.87,2-4.87,5.49,2.38,5.51,5.51,5.51a7.68,7.68,0,0,0,4.29-1.34l.87,1.57a9.63,9.63,0,0,1-5.45,1.68C347.6,190.57,344.24,187.84,344.24,183.15Z"/><path class="cls-1" d="M368.8,178.07h-6.52v-1.94h8.93v14.09H368.8Zm-.95-6.76a1.92,1.92,0,1,1,1.91,1.86A1.81,1.81,0,0,1,367.85,171.31Z"/><path class="cls-1" d="M379.16,192.8c0-1.13.81-2.26,2.32-3.13v-.11a2.56,2.56,0,0,1-1.45-2.33,3.42,3.42,0,0,1,1.68-2.63v-.12a4.49,4.49,0,0,1-1.74-3.66c0-3.07,2.55-5,5.54-5a5.58,5.58,0,0,1,2.09.35h5.83v1.94h-3.66a4.25,4.25,0,0,1,1.19,2.84c0,3-2.41,4.85-5.45,4.85a6,6,0,0,1-2.38-.53,1.94,1.94,0,0,0-1.1,1.63c0,1.1,1.07,1.62,2.93,1.62h3.16c3.63,0,5.37.93,5.37,3.31,0,2.64-3.05,4.93-7.84,4.93C381.53,196.72,379.16,195.3,379.16,192.8Zm12-.63c0-1.34-1.08-1.72-3.22-1.72h-2.76a7.79,7.79,0,0,1-2.15-.23c-1.33.73-1.79,1.54-1.79,2.35,0,1.48,1.59,2.41,4.61,2.41C389.11,195,391.14,193.62,391.14,192.17Zm-2.38-11.35a3.25,3.25,0,1,0-3.25,3.34A3.18,3.18,0,0,0,388.76,180.82Z"/><path class="cls-1" d="M397.17,169.57h2.4v5.63l-.14,3.33h.08a7.11,7.11,0,0,1,5.25-2.75c3.34,0,4.88,2,4.88,5.68v8.76h-2.41v-8.44c0-2.67-.93-3.91-3.22-3.91-1.68,0-2.81.84-4.44,2.52v9.83h-2.4Z"/><path class="cls-1" d="M417.84,184.74v-6.67h-4v-1.8l4.09-.14.32-4.53h2v4.53h6.9v1.94h-6.9v6.7c0,2.52.84,3.83,3.57,3.83a9.18,9.18,0,0,0,3.36-.64l.53,1.77a12.41,12.41,0,0,1-4.41.84C419.18,190.57,417.84,188.22,417.84,184.74Z"/><path class="cls-1" d="M435.62,177.72a2.35,2.35,0,1,1,2.35,2.47A2.35,2.35,0,0,1,435.62,177.72Zm0,10.38a2.35,2.35,0,1,1,2.35,2.47A2.34,2.34,0,0,1,435.62,188.1Z"/><path class="cls-1" d="M466.88,188.22h5.34V174.65h-4.15v-1.57a13.53,13.53,0,0,0,4.76-1.36h1.8v16.5h4.81v2H466.88Z"/><path class="cls-1" d="M483.7,181.67c0-7.43,3.71-10.3,7.75-10.3a7.36,7.36,0,0,1,5.16,2l-1.34,1.51a5.44,5.44,0,0,0-3.68-1.48c-3,0-5.63,2.12-5.63,8.3,0,4.55,1.74,7,4.82,7a3.85,3.85,0,0,0,3.89-4.07c0-2.52-1.37-3.91-3.92-3.91a6.49,6.49,0,0,0-4.85,2.61l-.08-1.89a7.84,7.84,0,0,1,5.36-2.52c3.43,0,5.78,1.91,5.78,5.71a6,6,0,0,1-6.18,5.95C486.75,190.57,483.7,187.61,483.7,181.67Z"/><path class="cls-1" d="M500.49,188.05l1.19-1.6a7.39,7.39,0,0,0,5.22,2.12c2.58,0,4.67-1.63,4.67-4.21s-1.8-4-4.52-4a6.92,6.92,0,0,0-3.77,1.1l-1.28-.81.61-8.9h10.47v2.08h-8.35l-.5,5.46a7.87,7.87,0,0,1,3.43-.76c3.53,0,6.35,1.8,6.35,5.81s-3.31,6.26-6.85,6.26A9.33,9.33,0,0,1,500.49,188.05Z"/><path class="cls-1" d="M519,176.13h2l.2,1.79h.09a7.5,7.5,0,0,1,4.87-2.14c3.8,0,5.83,2.81,5.83,7.19,0,4.79-3,7.6-6.41,7.6a6.72,6.72,0,0,1-4.21-1.83h0l.11,2.67v4.76H519ZM529.47,183c0-3.1-1.16-5.16-4-5.16a6,6,0,0,0-4.12,2.09v7a6,6,0,0,0,3.74,1.62C527.61,188.54,529.47,186.45,529.47,183Z"/><path class="cls-1" d="M540.86,182.91l-4.93-6.78h2.64l2.23,3.07c.49.78,1.07,1.62,1.65,2.38h.12c.52-.76,1.1-1.63,1.6-2.41l2.08-3h2.56l-5,7,5.39,7.1h-2.67L544.11,187c-.61-.78-1.25-1.74-1.86-2.55h-.11c-.58.84-1.16,1.68-1.74,2.58l-2.33,3.22h-2.55Z"/><path class="cls-1" d="M556.75,194.89c2.47-1.1,3.69-2.67,3.66-5.07l-.53-2.67,1.63,2.29a2.28,2.28,0,0,1-3.89-1.51,2.16,2.16,0,0,1,2.32-2.2c1.71,0,2.61,1.42,2.61,3.71,0,3.39-1.91,5.77-5.1,7Zm.67-17.17a2.35,2.35,0,1,1,2.35,2.47A2.35,2.35,0,0,1,557.42,177.72Z"/><path class="cls-1" d="M331.22,222.91a2.35,2.35,0,1,1,2.35,2.46A2.35,2.35,0,0,1,331.22,222.91Z"/><path class="cls-1" d="M345,204.37h2.4V210l-.14,3.33h.08a7.11,7.11,0,0,1,5.25-2.75c3.34,0,4.88,2,4.88,5.68V225H355v-8.44c0-2.67-.93-3.91-3.22-3.91-1.68,0-2.81.84-4.44,2.52V225H345Z"/><path class="cls-1" d="M361.64,218a7.08,7.08,0,0,1,7.19-7.37c4.06,0,6.44,2.64,6.44,6.61a9.64,9.64,0,0,1-.11,1.45H363.24v-1.85h10.5l-.61.66c0-3.33-1.66-5-4.24-5s-4.87,2-4.87,5.49,2.38,5.51,5.51,5.51a7.68,7.68,0,0,0,4.29-1.34l.87,1.57a9.63,9.63,0,0,1-5.45,1.68C365,225.37,361.64,222.64,361.64,218Z"/><path class="cls-1" d="M379.39,221.37c0-3.16,3-4.7,10.24-5.28-.09-1.92-1-3.54-3.74-3.54a9.88,9.88,0,0,0-4.94,1.68l-.95-1.62a12.34,12.34,0,0,1,6.29-2c3.86,0,5.75,2.29,5.75,5.8V225h-2l-.2-1.91h-.09a9.43,9.43,0,0,1-5.54,2.26C381.56,225.37,379.39,223.89,379.39,221.37Zm10.24,0v-3.66c-6,.47-7.86,1.66-7.86,3.51,0,1.6,1.45,2.24,3.07,2.24A7.72,7.72,0,0,0,389.63,221.34Z"/><path class="cls-1" d="M396.21,218c0-4.58,3-7.42,6.38-7.42a6,6,0,0,1,4.23,1.8h.06l-.11-2.59v-5.42h2.4V225h-2l-.2-1.85h-.09a6.76,6.76,0,0,1-4.61,2.2C398.64,225.37,396.21,222.7,396.21,218Zm10.56,3.25v-7a5.23,5.23,0,0,0-3.69-1.62c-2.43,0-4.41,2.14-4.41,5.36,0,3.37,1.57,5.37,4.15,5.37A5.35,5.35,0,0,0,406.77,221.25Z"/><path class="cls-1" d="M436.66,225.57c0-2.11.29-3.65.29-5.59,0-1.14-.78-2.24-4.2-2.27V216.2c3.42,0,4.2-1.13,4.2-2.26,0-1.83-.29-3.59-.29-5.6,0-3,1.74-3.85,5.37-3.85h1.8v1.36h-1.51c-3,0-3.6.75-3.6,2.64,0,1.65.18,3.45.18,5.25s-.64,2.81-2.64,3.16V217c2,.35,2.64,1.27,2.64,3.16s-.18,3.48-.18,5.25.64,2.64,3.6,2.64h1.51v1.36H442C438.4,229.43,436.66,228.56,436.66,225.57Z"/><path class="cls-1" d="M367.22,257.71a2.35,2.35,0,1,1,2.35,2.46A2.35,2.35,0,0,1,367.22,257.71Z"/><path class="cls-1" d="M381,239.17h2.4v5.63l-.14,3.33h.08a7.11,7.11,0,0,1,5.25-2.75c3.34,0,4.88,2,4.88,5.68v8.76H391v-8.44c0-2.67-.93-3.91-3.22-3.91-1.68,0-2.81.84-4.44,2.52v9.83H381Z"/><path class="cls-1" d="M398,256.17c0-3.16,3-4.7,10.24-5.28-.09-1.92-1-3.54-3.74-3.54a9.88,9.88,0,0,0-4.94,1.68l-.95-1.62a12.34,12.34,0,0,1,6.29-2c3.86,0,5.75,2.29,5.75,5.8v8.64h-2l-.2-1.91h-.09a9.43,9.43,0,0,1-5.54,2.26C400.16,260.17,398,258.69,398,256.17Zm10.24,0v-3.66c-6,.47-7.86,1.66-7.86,3.51,0,1.6,1.45,2.24,3.07,2.24A7.72,7.72,0,0,0,408.23,256.14Z"/><path class="cls-1" d="M422.2,247.67h-6.52v-1.94h8.93v14.09H422.2Zm-.95-6.76a1.92,1.92,0,1,1,1.91,1.86A1.81,1.81,0,0,1,421.25,240.91Z"/><path class="cls-1" d="M434.67,245.73h2l.24,3.33h0a7.44,7.44,0,0,1,6.3-3.68A5.86,5.86,0,0,1,446,246l-.55,2.06a7,7,0,0,0-2.61-.47c-2.12,0-4.12,1.08-5.8,4v8.24h-2.41Z"/><path class="cls-1" d="M472.66,260.37c0-2.11.29-3.65.29-5.59,0-1.14-.78-2.24-4.2-2.27V251c3.42,0,4.2-1.13,4.2-2.26,0-1.83-.29-3.59-.29-5.6,0-3,1.74-3.85,5.37-3.85h1.8v1.36h-1.51c-3,0-3.6.75-3.6,2.64,0,1.65.18,3.45.18,5.25s-.64,2.81-2.64,3.16v.12c2,.35,2.64,1.27,2.64,3.16s-.18,3.48-.18,5.25.64,2.64,3.6,2.64h1.51v1.36H478C474.4,264.23,472.66,263.36,472.66,260.37Z"/><path class="cls-1" d="M401.8,293.06h-.09l-.23,1.56h-1.91V274H402v5.63l-.11,2.72h.08a7,7,0,0,1,4.73-2.14c3.8,0,5.86,2.81,5.86,7.16,0,4.82-3,7.63-6.35,7.63A6.94,6.94,0,0,1,401.8,293.06Zm8.27-5.69c0-3.1-1.16-5.16-4-5.16A6,6,0,0,0,402,284.3v7a5.91,5.91,0,0,0,3.8,1.62C408.21,292.94,410.07,290.85,410.07,287.37Z"/><path class="cls-1" d="M416.59,291c0-3.16,3-4.7,10.24-5.28-.09-1.92-1-3.54-3.74-3.54a9.88,9.88,0,0,0-4.94,1.68l-.95-1.62a12.34,12.34,0,0,1,6.29-2c3.86,0,5.75,2.29,5.75,5.8v8.64h-2l-.2-1.91h-.09A9.43,9.43,0,0,1,421.4,295C418.76,295,416.59,293.49,416.59,291Zm10.24,0v-3.66c-6,.47-7.86,1.66-7.86,3.51,0,1.6,1.45,2.24,3.07,2.24A7.72,7.72,0,0,0,426.83,290.94Z"/><path class="cls-1" d="M434,287.6c0-4.72,3.59-7.42,7.86-7.42a7.16,7.16,0,0,1,5.13,2.06l-1.19,1.53a5.82,5.82,0,0,0-3.85-1.59,5.18,5.18,0,0,0-5.49,5.42,5.12,5.12,0,0,0,5.43,5.37,6.68,6.68,0,0,0,4.35-1.77l1.07,1.57a8.39,8.39,0,0,1-5.6,2.2C437.29,295,434,292.27,434,287.6Z"/><path class="cls-1" d="M452.11,274h2.41v13.95h.12l7.57-7.39H465l-10.44,10.26v3.83h-2.41Zm5.43,13.17,1.45-1.57,6.73,9.05h-2.67Z"/><path class="cls-1" d="M468.56,297.2c0-1.13.81-2.26,2.32-3.13V294a2.56,2.56,0,0,1-1.45-2.32,3.42,3.42,0,0,1,1.68-2.64v-.12a4.49,4.49,0,0,1-1.74-3.66c0-3.07,2.55-5,5.54-5a5.58,5.58,0,0,1,2.09.35h5.83v1.94h-3.66a4.25,4.25,0,0,1,1.19,2.84c0,3-2.41,4.85-5.45,4.85a6,6,0,0,1-2.38-.53,1.94,1.94,0,0,0-1.1,1.63c0,1.1,1.07,1.62,2.93,1.62h3.16c3.63,0,5.37.93,5.37,3.31,0,2.64-3.05,4.93-7.84,4.93C470.93,301.12,468.56,299.7,468.56,297.2Zm12-.63c0-1.34-1.08-1.72-3.22-1.72h-2.76a7.79,7.79,0,0,1-2.15-.23c-1.33.73-1.79,1.54-1.79,2.35,0,1.48,1.59,2.41,4.61,2.41C478.51,299.38,480.54,298,480.54,296.57Zm-2.38-11.35a3.25,3.25,0,1,0-3.25,3.34A3.18,3.18,0,0,0,478.16,285.22Z"/><path class="cls-1" d="M488.07,280.53h2l.24,3.33h.05a7.44,7.44,0,0,1,6.3-3.68,5.86,5.86,0,0,1,2.78.58l-.55,2.06a7,7,0,0,0-2.61-.47c-2.12,0-4.12,1.08-5.8,4v8.23h-2.41Z"/><path class="cls-1" d="M503,287.6c0-4.72,3.25-7.42,7-7.42s7,2.7,7,7.42-3.25,7.37-7,7.37S503,292.27,503,287.6Zm11.46,0c0-3.25-1.8-5.42-4.5-5.42s-4.5,2.17-4.5,5.42,1.8,5.37,4.5,5.37S514.47,290.82,514.47,287.6Z"/><path class="cls-1" d="M520.9,289.29v-8.76h2.41V289c0,2.64.93,3.91,3.25,3.91,1.62,0,2.81-.75,4.38-2.58v-9.77h2.41v14.09h-2l-.2-2.46H531a6.86,6.86,0,0,1-5.25,2.81C522.44,295,520.9,293,520.9,289.29Z"/><path class="cls-1" d="M538.76,280.53h2l.2,2.37h.12c1.48-1.53,3.1-2.72,5.3-2.72,3.34,0,4.88,2,4.88,5.68v8.76h-2.41v-8.44c0-2.67-.93-3.91-3.22-3.91-1.68,0-2.81.84-4.44,2.52v9.83h-2.41Z"/><path class="cls-1" d="M555.21,287.6c0-4.58,3-7.42,6.38-7.42a6,6,0,0,1,4.23,1.8h.06l-.11-2.59V274h2.4v20.65h-2l-.2-1.85h-.09a6.76,6.76,0,0,1-4.61,2.2C557.64,295,555.21,292.3,555.21,287.6Zm10.56,3.25v-7a5.23,5.23,0,0,0-3.69-1.62c-2.43,0-4.41,2.14-4.41,5.36,0,3.37,1.57,5.37,4.15,5.37A5.35,5.35,0,0,0,565.77,290.85Z"/><path class="cls-1" d="M577.22,282.12a2.35,2.35,0,1,1,2.35,2.47A2.34,2.34,0,0,1,577.22,282.12Zm0,10.39a2.35,2.35,0,1,1,2.35,2.46A2.35,2.35,0,0,1,577.22,292.51Z"/><path class="cls-1" d="M608.19,287h11.95v1.69H608.19Zm.58-5.94h12v1.68h-12Zm3.33-5.31h1.54l-2.29,18.85h-1.57Zm5.4,0H619l-2.29,18.85h-1.57Z"/><path class="cls-1" d="M628,293.06h-.09l-.23,1.56h-1.92V274h2.41v5.63l-.12,2.72h.09a7,7,0,0,1,4.73-2.14c3.8,0,5.86,2.81,5.86,7.16,0,4.82-3,7.63-6.35,7.63A6.92,6.92,0,0,1,628,293.06Zm8.26-5.69c0-3.1-1.16-5.16-4-5.16a6,6,0,0,0-4.12,2.09v7a5.87,5.87,0,0,0,3.8,1.62C634.41,292.94,636.26,290.85,636.26,287.37Z"/><path class="cls-1" d="M647.6,289.9v-14h-5V274H650v16.1c0,2,1.1,2.9,2.78,2.9a6.28,6.28,0,0,0,2.64-.64l.61,1.8a8.55,8.55,0,0,1-3.77.84C649.25,295,647.6,293.23,647.6,289.9Z"/><path class="cls-1" d="M659.6,287.6c0-4.72,3.25-7.42,7-7.42s7,2.7,7,7.42-3.25,7.37-7,7.37S659.6,292.27,659.6,287.6Zm11.46,0c0-3.25-1.8-5.42-4.5-5.42s-4.49,2.17-4.49,5.42,1.8,5.37,4.49,5.37S671.06,290.82,671.06,287.6Z"/><path class="cls-1" d="M678,280.53h2l.21,2.37h.11c1.48-1.53,3.11-2.72,5.31-2.72,3.34,0,4.87,2,4.87,5.68v8.76H688v-8.44c0-2.67-.93-3.91-3.22-3.91-1.69,0-2.82.84-4.44,2.52v9.83H678Z"/><path class="cls-1" d="M694.4,287.6c0-4.58,3.05-7.42,6.38-7.42A6,6,0,0,1,705,282h.06l-.12-2.59V274h2.41v20.65h-2l-.21-1.85h-.08a6.78,6.78,0,0,1-4.62,2.2C696.84,295,694.4,292.3,694.4,287.6ZM705,290.85v-7a5.23,5.23,0,0,0-3.68-1.62c-2.44,0-4.41,2.14-4.41,5.36,0,3.37,1.56,5.37,4.15,5.37A5.33,5.33,0,0,0,705,290.85Z"/><path class="cls-1" d="M712,287.55a7.09,7.09,0,0,1,7.2-7.37c4.06,0,6.44,2.64,6.44,6.61a9.5,9.5,0,0,1-.12,1.45H713.63v-1.85h10.5l-.61.66c0-3.33-1.65-5-4.23-5s-4.88,2-4.88,5.49,2.38,5.51,5.51,5.51a7.72,7.72,0,0,0,4.3-1.34l.87,1.57a9.67,9.67,0,0,1-5.46,1.68C715.4,295,712,292.24,712,287.55Z"/><path class="cls-1" d="M733.15,299.29c2.46-1.1,3.68-2.67,3.65-5.07l-.52-2.67,1.62,2.29a2,2,0,0,1-1.62.67,2.08,2.08,0,0,1-2.26-2.18,2.16,2.16,0,0,1,2.32-2.2c1.71,0,2.61,1.42,2.61,3.71,0,3.39-1.92,5.77-5.11,7Zm.66-17.17a2.35,2.35,0,1,1,2.35,2.47A2.35,2.35,0,0,1,733.81,282.12Z"/><path class="cls-1" d="M363.74,332.47h1.48c3,0,3.62-.76,3.62-2.64s-.17-3.28-.17-5.25.61-2.81,2.61-3.16v-.12c-2-.35-2.61-1.28-2.61-3.16s.17-3.6.17-5.25c0-1.89-.66-2.64-3.62-2.64h-1.48v-1.36h1.77c3.65,0,5.34.87,5.34,3.85,0,2-.27,3.77-.27,5.6,0,1.13.79,2.24,4.21,2.26v1.51c-3.42,0-4.21,1.13-4.21,2.27,0,1.94.27,3.48.27,5.59,0,3-1.69,3.86-5.34,3.86h-1.77Z"/><path class="cls-1" d="M367.22,362.1a2.35,2.35,0,1,1,2.35,2.47A2.34,2.34,0,0,1,367.22,362.1Z"/><path class="cls-1" d="M380.24,357.15a7.08,7.08,0,0,1,7.19-7.37c4.06,0,6.44,2.64,6.44,6.61a9.64,9.64,0,0,1-.11,1.45H381.84V356h10.5l-.61.67c0-3.33-1.66-5-4.24-5s-4.87,2-4.87,5.49,2.38,5.51,5.51,5.51a7.68,7.68,0,0,0,4.29-1.34l.87,1.57a9.63,9.63,0,0,1-5.45,1.68C383.6,364.57,380.24,361.84,380.24,357.15Z"/><path class="cls-1" d="M397.61,370l.49-1.92a4.45,4.45,0,0,0,1.28.2c2,0,3.16-1.24,3.86-3l.4-1.05-6.55-14.12h2.44L403,357.9c.55,1.25,1.16,2.73,1.74,4.09h.11c.5-1.34,1.05-2.81,1.51-4.09l3.05-7.77h2.32l-6.24,15.25c-1,2.79-2.75,4.91-6,4.91A6.05,6.05,0,0,1,397.61,370Z"/><path class="cls-1" d="M415,357.15a7.08,7.08,0,0,1,7.19-7.37c4.06,0,6.44,2.64,6.44,6.61a9.64,9.64,0,0,1-.11,1.45H416.64V356h10.5l-.61.67c0-3.33-1.66-5-4.24-5s-4.87,2-4.87,5.49,2.38,5.51,5.51,5.51a7.68,7.68,0,0,0,4.29-1.34l.87,1.57a9.63,9.63,0,0,1-5.45,1.68C418.4,364.57,415,361.84,415,357.15Z"/><path class="cls-1" d="M432.53,362.37l1.1-1.6a10.06,10.06,0,0,0,6.12,1.92c2.38,0,3.54-1,3.54-2.18s-.55-1.83-4.38-2.61-5.51-2-5.51-4.12,2-4,5.86-4a10.55,10.55,0,0,1,5.68,1.8l-1.16,1.53a8.3,8.3,0,0,0-4.73-1.48c-2.38,0-3.25,1-3.25,2s1.22,1.74,4.12,2.35c4.67,1,5.81,2.18,5.81,4.35s-2.24,4.21-6.27,4.21A12.36,12.36,0,0,1,432.53,362.37Z"/><path class="cls-1" d="M472.66,364.77c0-2.11.29-3.65.29-5.59,0-1.14-.78-2.24-4.2-2.27V355.4c3.42,0,4.2-1.13,4.2-2.26,0-1.83-.29-3.6-.29-5.6,0-3,1.74-3.85,5.37-3.85h1.8v1.36h-1.51c-3,0-3.6.75-3.6,2.64,0,1.65.18,3.45.18,5.25s-.64,2.81-2.64,3.16v.12c2,.34,2.64,1.27,2.64,3.16s-.18,3.48-.18,5.25.64,2.64,3.6,2.64h1.51v1.36H478C474.4,368.63,472.66,367.76,472.66,364.77Z"/><path class="cls-1" d="M399.19,392c0-4.73,3.6-7.42,7.86-7.42a7.16,7.16,0,0,1,5.13,2.06L411,388.17a5.82,5.82,0,0,0-3.85-1.59,5.18,5.18,0,0,0-5.49,5.42,5.12,5.12,0,0,0,5.43,5.37,6.68,6.68,0,0,0,4.35-1.77l1.07,1.57a8.39,8.39,0,0,1-5.6,2.2C402.5,399.37,399.19,396.67,399.19,392Z"/><path class="cls-1" d="M416,392c0-4.73,3.25-7.42,7-7.42s7,2.69,7,7.42-3.25,7.37-7,7.37S416,396.67,416,392Zm11.46,0c0-3.25-1.8-5.42-4.5-5.42s-4.5,2.17-4.5,5.42,1.8,5.37,4.5,5.37S427.47,395.22,427.47,392Z"/><path class="cls-1" d="M438.8,394.29v-14h-5v-1.94h7.4v16.1c0,2,1.1,2.9,2.79,2.9a6.31,6.31,0,0,0,2.64-.64l.6,1.8a8.55,8.55,0,0,1-3.77.84C440.46,399.37,438.8,397.63,438.8,394.29Z"/><path class="cls-1" d="M450.81,392c0-4.73,3.25-7.42,7-7.42s7,2.69,7,7.42-3.25,7.37-7,7.37S450.81,396.67,450.81,392Zm11.46,0c0-3.25-1.8-5.42-4.5-5.42s-4.5,2.17-4.5,5.42,1.8,5.37,4.5,5.37S462.27,395.22,462.27,392Z"/><path class="cls-1" d="M470.67,384.93h2l.24,3.33h0a7.44,7.44,0,0,1,6.3-3.68,5.86,5.86,0,0,1,2.78.58l-.55,2.06a7,7,0,0,0-2.61-.47c-2.12,0-4.12,1.08-5.8,4V399h-2.41Z"/><path class="cls-1" d="M490.22,386.52a2.35,2.35,0,1,1,2.35,2.47A2.34,2.34,0,0,1,490.22,386.52Zm0,10.39a2.35,2.35,0,1,1,2.35,2.46A2.35,2.35,0,0,1,490.22,396.91Z"/><path class="cls-1" d="M521.19,391.42h11.95v1.69H521.19Zm.58-5.94h12v1.68h-12Zm3.34-5.31h1.53L524.35,399h-1.56Zm5.39,0H532L529.75,399h-1.57Z"/><path class="cls-1" d="M541,397.46h-.09l-.23,1.56h-1.92V378.37h2.41V384l-.11,2.72h.08a7,7,0,0,1,4.73-2.14c3.8,0,5.86,2.81,5.86,7.16,0,4.82-3,7.63-6.35,7.63A6.94,6.94,0,0,1,541,397.46Zm8.27-5.69c0-3.1-1.17-5.16-4-5.16a6,6,0,0,0-4.12,2.09v7a5.91,5.91,0,0,0,3.8,1.62C547.41,397.34,549.27,395.25,549.27,391.77Z"/><path class="cls-1" d="M560.6,394.29v-14h-5v-1.94H563v16.1c0,2,1.1,2.9,2.78,2.9a6.25,6.25,0,0,0,2.64-.64l.61,1.8a8.55,8.55,0,0,1-3.77.84C562.26,399.37,560.6,397.63,560.6,394.29Z"/><path class="cls-1" d="M573.1,393.69v-8.76h2.41v8.44c0,2.64.93,3.91,3.25,3.91,1.62,0,2.81-.75,4.38-2.58v-9.77h2.4V399h-2l-.2-2.46h-.12a6.86,6.86,0,0,1-5.25,2.81C574.64,399.37,573.1,397.4,573.1,393.69Z"/><path class="cls-1" d="M590.24,392a7.08,7.08,0,0,1,7.19-7.37c4.06,0,6.44,2.64,6.44,6.61a9.5,9.5,0,0,1-.12,1.45H591.83v-1.85h10.5l-.61.66c0-3.33-1.65-5-4.23-5s-4.87,2-4.87,5.49,2.37,5.51,5.51,5.51a7.71,7.71,0,0,0,4.29-1.34l.87,1.57a9.63,9.63,0,0,1-5.45,1.68C593.6,399.37,590.24,396.64,590.24,392Z"/><path class="cls-1" d="M611.35,403.69c2.47-1.1,3.68-2.67,3.66-5.07l-.53-2.67,1.63,2.29a2.28,2.28,0,0,1-3.89-1.51,2.16,2.16,0,0,1,2.32-2.2c1.71,0,2.61,1.42,2.61,3.71,0,3.39-1.91,5.77-5.1,7Zm.67-17.17a2.35,2.35,0,1,1,2.35,2.47A2.34,2.34,0,0,1,612,386.52Z"/><path class="cls-1" d="M363.74,436.87h1.48c3,0,3.62-.76,3.62-2.64s-.17-3.28-.17-5.25.61-2.81,2.61-3.16v-.12c-2-.35-2.61-1.28-2.61-3.16s.17-3.6.17-5.25c0-1.89-.66-2.64-3.62-2.64h-1.48v-1.36h1.77c3.65,0,5.34.87,5.34,3.85,0,2-.27,3.77-.27,5.6,0,1.13.79,2.24,4.21,2.26v1.51c-3.42,0-4.21,1.13-4.21,2.27,0,1.94.27,3.48.27,5.59,0,3-1.69,3.86-5.34,3.86h-1.77Z"/><path class="cls-1" d="M327.74,471.67h1.48c3,0,3.62-.76,3.62-2.64s-.17-3.28-.17-5.25.61-2.81,2.61-3.16v-.12c-2-.35-2.61-1.28-2.61-3.16s.17-3.6.17-5.25c0-1.89-.66-2.64-3.62-2.64h-1.48v-1.36h1.77c3.65,0,5.34.87,5.34,3.85,0,2-.27,3.77-.27,5.6,0,1.13.79,2.24,4.21,2.27v1.5c-3.42,0-4.21,1.13-4.21,2.27,0,1.94.27,3.48.27,5.59,0,3-1.69,3.86-5.34,3.86h-1.77Z"/><path class="cls-1" d="M348,473.29c2.47-1.1,3.69-2.67,3.66-5.07l-.52-2.67,1.62,2.29a2,2,0,0,1-1.62.67,2.08,2.08,0,0,1-2.27-2.18,2.16,2.16,0,0,1,2.32-2.2c1.71,0,2.61,1.42,2.61,3.71,0,3.39-1.91,5.77-5.1,7Zm.67-17.17a2.35,2.35,0,1,1,2.35,2.47A2.34,2.34,0,0,1,348.62,456.12Z"/><path class="cls-1" d="M291.74,506.47h1.48c3,0,3.62-.76,3.62-2.64s-.17-3.28-.17-5.25.61-2.81,2.61-3.16v-.12c-2-.35-2.61-1.28-2.61-3.16s.17-3.6.17-5.25c0-1.89-.66-2.64-3.62-2.64h-1.48v-1.36h1.77c3.65,0,5.34.87,5.34,3.85,0,2-.27,3.77-.27,5.6,0,1.13.79,2.24,4.21,2.26v1.51c-3.42,0-4.21,1.13-4.21,2.27,0,1.94.27,3.48.27,5.59,0,3-1.69,3.86-5.34,3.86h-1.77Z"/><path class="cls-1" d="M846.86,195.49c0-4.73,3.6-7.43,7.86-7.43a7.16,7.16,0,0,1,5.13,2.06l-1.19,1.54a5.78,5.78,0,0,0-3.85-1.6,5.19,5.19,0,0,0-5.49,5.43,5.12,5.12,0,0,0,5.43,5.36,6.68,6.68,0,0,0,4.35-1.77l1.07,1.57a8.39,8.39,0,0,1-5.6,2.2C850.17,202.85,846.86,200.16,846.86,195.49Z"/><path class="cls-1" d="M863.68,195.49c0-4.73,3.25-7.43,7-7.43s7,2.7,7,7.43-3.25,7.36-7,7.36S863.68,200.16,863.68,195.49Zm11.46,0c0-3.25-1.8-5.43-4.5-5.43s-4.5,2.18-4.5,5.43,1.8,5.36,4.5,5.36S875.14,198.71,875.14,195.49Z"/><path class="cls-1" d="M882,188.41h2l.2,2.38h.12c1.48-1.54,3.1-2.73,5.3-2.73,3.34,0,4.88,2,4.88,5.68v8.76H892.1v-8.44c0-2.66-.93-3.91-3.22-3.91-1.68,0-2.81.84-4.44,2.52v9.83H882Z"/><path class="cls-1" d="M898.8,200.65l1.1-1.6A10.06,10.06,0,0,0,906,201c2.38,0,3.54-1,3.54-2.18s-.55-1.83-4.38-2.61-5.51-2-5.51-4.12,2-4,5.86-4a10.55,10.55,0,0,1,5.68,1.8l-1.16,1.54a8.3,8.3,0,0,0-4.73-1.48c-2.38,0-3.25,1-3.25,2s1.22,1.74,4.12,2.35c4.67,1,5.8,2.17,5.8,4.35s-2.23,4.2-6.26,4.2A12.36,12.36,0,0,1,898.8,200.65Z"/><path class="cls-1" d="M920.11,197v-6.67h-4v-1.8l4.09-.14.32-4.53h2v4.53h6.9v1.94h-6.9v6.7c0,2.53.84,3.83,3.57,3.83a9.18,9.18,0,0,0,3.36-.64L930,202a12.14,12.14,0,0,1-4.4.84C921.45,202.85,920.11,200.5,920.11,197Z"/><path class="cls-1" d="M950.62,188.41h1.91l.21,1.85h0a3.51,3.51,0,0,1,3.22-2.2c1.4,0,2.27.81,2.67,2.44.81-1.51,1.69-2.44,3.31-2.44,2,0,3.13,1.54,3.13,4.35V202.5h-2.38v-9.92c0-1.62-.46-2.46-1.51-2.46s-1.5.72-2.26,2.17V202.5h-2.2v-9.92c0-1.62-.41-2.46-1.45-2.46s-1.63.72-2.32,2.17V202.5h-2.38Z"/><path class="cls-1" d="M968.08,195.49c0-4.73,3.25-7.43,7-7.43s7,2.7,7,7.43-3.25,7.36-7,7.36S968.08,200.16,968.08,195.49Zm11.45,0c0-3.25-1.79-5.43-4.49-5.43s-4.5,2.18-4.5,5.43,1.8,5.36,4.5,5.36S979.53,198.71,979.53,195.49Z"/><path class="cls-1" d="M989.71,197v-6.67h-4v-1.8l4.09-.14.32-4.53h2v4.53H999v1.94h-6.9v6.7c0,2.53.84,3.83,3.57,3.83a9.18,9.18,0,0,0,3.36-.64l.52,1.77a12.15,12.15,0,0,1-4.41.84C991,202.85,989.71,200.5,989.71,197Z"/><path class="cls-1" d="M1007.11,197v-6.67h-4v-1.8l4.09-.14.32-4.53h2v4.53h6.9v1.94h-6.9v6.7c0,2.53.84,3.83,3.57,3.83a9.18,9.18,0,0,0,3.36-.64L1017,202a12.15,12.15,0,0,1-4.41.84C1008.45,202.85,1007.11,200.5,1007.11,197Z"/><path class="cls-1" d="M1020.28,195.49c0-4.73,3.24-7.43,7-7.43s7,2.7,7,7.43-3.25,7.36-7,7.36S1020.28,200.16,1020.28,195.49Zm11.45,0c0-3.25-1.79-5.43-4.49-5.43s-4.5,2.18-4.5,5.43,1.8,5.36,4.5,5.36S1031.73,198.71,1031.73,195.49Z"/><path class="cls-1" d="M1055.8,188.93h12.47v1.8H1055.8Zm0,6.21h12.47v1.8H1055.8Z"/><path class="cls-1" d="M1094.17,194.44a16.12,16.12,0,0,1,6.5-13.17l1.33,1.22a15.39,15.39,0,0,0,0,23.9l-1.33,1.22A16.12,16.12,0,0,1,1094.17,194.44Z"/><path class="cls-1" d="M1109.07,206.39a15.39,15.39,0,0,0,0-23.9l1.34-1.22a16.61,16.61,0,0,1,0,26.34Z"/><path class="cls-1" d="M1142.8,188.93h12.47v1.8H1142.8Zm0,6.21h12.47v1.8H1142.8Z"/><path class="cls-1" d="M1160.84,198.79l8.7-5.86v-.11l-8.7-5.86v-2.32l10.82,7.31v1.85l-10.82,7.31Z"/><path class="cls-1" d="M1199.93,203.06c0-2.12.29-3.66.29-5.6,0-1.13-.78-2.24-4.21-2.26v-1.51c3.43,0,4.21-1.13,4.21-2.27,0-1.82-.29-3.59-.29-5.59,0-3,1.74-3.86,5.36-3.86h1.8v1.36h-1.5c-3,0-3.6.76-3.6,2.64,0,1.65.17,3.45.17,5.25s-.63,2.81-2.64,3.16v.12c2,.35,2.64,1.28,2.64,3.16s-.17,3.48-.17,5.25.64,2.64,3.6,2.64h1.5v1.36h-1.8C1201.67,206.91,1199.93,206,1199.93,203.06Z"/><path class="cls-1" d="M889.67,225.15h-6.52v-1.94h8.93V237.3h-2.41Zm-.95-6.76a1.92,1.92,0,1,1,1.91,1.86A1.81,1.81,0,0,1,888.72,218.39Z"/><path class="cls-1" d="M900.93,223.35l4.09-.14h8.2v1.94H900.93Zm4-1.33c0-3.42,1.8-5.72,5.68-5.72a10.27,10.27,0,0,1,4.06.82l-.55,1.79a7.66,7.66,0,0,0-3.27-.66c-2.53,0-3.54,1.42-3.54,3.68V237.3H905Z"/><path class="cls-1" d="M938.77,229.24a16.15,16.15,0,0,1,6.5-13.17l1.33,1.22a15.41,15.41,0,0,0,0,23.9l-1.33,1.22A16.15,16.15,0,0,1,938.77,229.24Z"/><path class="cls-1" d="M952.2,235.45l1.1-1.6a10.06,10.06,0,0,0,6.12,1.92c2.38,0,3.54-1,3.54-2.18s-.55-1.83-4.38-2.61-5.51-2-5.51-4.12,2-4,5.86-4a10.55,10.55,0,0,1,5.68,1.8l-1.16,1.53a8.37,8.37,0,0,0-4.73-1.47c-2.38,0-3.25.95-3.25,2s1.22,1.74,4.12,2.35c4.67,1,5.8,2.17,5.8,4.35s-2.23,4.2-6.26,4.2A12.36,12.36,0,0,1,952.2,235.45Z"/><path class="cls-1" d="M970.23,216.65h2.41v5.63l-.14,3.33h.08a7.11,7.11,0,0,1,5.25-2.75c3.34,0,4.88,2,4.88,5.68v8.76H980.3v-8.44c0-2.67-.93-3.91-3.22-3.91-1.68,0-2.81.84-4.44,2.52v9.83h-2.41Z"/><path class="cls-1" d="M994.07,225.15h-6.52v-1.94h8.93V237.3h-2.41Zm-1-6.76a1.92,1.92,0,1,1,1.91,1.86A1.81,1.81,0,0,1,993.12,218.39Z"/><path class="cls-1" d="M1008.31,231.82v-6.67h-4v-1.8l4.09-.14.32-4.53h2v4.53h6.9v1.94h-6.9v6.7c0,2.53.84,3.83,3.57,3.83a9.18,9.18,0,0,0,3.36-.64l.52,1.77a12.09,12.09,0,0,1-4.4.84C1009.65,237.65,1008.31,235.3,1008.31,231.82Z"/><path class="cls-1" d="M1022,218.28h2.46v7.94h7.89v-7.94h2.47v19h-2.47v-8.93h-7.89v8.93H1022Z"/><path class="cls-1" d="M1046.27,225.15h-6.52v-1.94h8.93V237.3h-2.41Zm-1-6.76a1.92,1.92,0,1,1,1.91,1.86A1.81,1.81,0,0,1,1045.32,218.39Z"/><path class="cls-1" d="M1060.51,231.82v-6.67h-4v-1.8l4.09-.14.32-4.53h2v4.53h6.9v1.94h-6.9v6.7c0,2.53.84,3.83,3.57,3.83a9.18,9.18,0,0,0,3.36-.64l.53,1.77a12.25,12.25,0,0,1-4.42.84C1061.85,237.65,1060.51,235.3,1060.51,231.82Z"/><path class="cls-1" d="M1079.42,220.34h-6.29v-2.06h15v2.06h-6.29v17h-2.44Z"/><path class="cls-1" d="M1092,216.65h2.41v5.63l-.15,3.33h.09a7.09,7.09,0,0,1,5.25-2.75c3.34,0,4.88,2,4.88,5.68v8.76h-2.41v-8.44c0-2.67-.93-3.91-3.22-3.91-1.68,0-2.82.84-4.44,2.52v9.83H1092Z"/><path class="cls-1" d="M1108.71,230.23a7.08,7.08,0,0,1,7.19-7.37c4.06,0,6.44,2.64,6.44,6.61a9.39,9.39,0,0,1-.12,1.45H1110.3v-1.85h10.5l-.6.66c0-3.33-1.66-5-4.24-5s-4.87,2-4.87,5.49,2.37,5.51,5.51,5.51a7.61,7.61,0,0,0,4.29-1.34l.87,1.57a9.63,9.63,0,0,1-5.45,1.68C1112.07,237.65,1108.71,234.93,1108.71,230.23Z"/><path class="cls-1" d="M1128,218.28h11.69v2.06h-9.25v6.41h7.83v2.06h-7.83v8.49H1128Z"/><path class="cls-1" d="M1143.86,233.65c0-3.16,3-4.7,10.23-5.28-.08-1.91-1-3.54-3.74-3.54a9.88,9.88,0,0,0-4.93,1.68l-1-1.62a12.34,12.34,0,0,1,6.3-2c3.86,0,5.74,2.29,5.74,5.8v8.64h-2l-.2-1.91h-.09a9.48,9.48,0,0,1-5.54,2.26C1146,237.65,1143.86,236.17,1143.86,233.65Zm10.23,0V230c-6,.46-7.86,1.65-7.86,3.51,0,1.59,1.45,2.23,3.08,2.23A7.64,7.64,0,0,0,1154.09,233.62Z"/><path class="cls-1" d="M1161.63,223.21h2l.21,2.38h.11c1.48-1.54,3.11-2.73,5.31-2.73,3.34,0,4.87,2,4.87,5.68v8.76h-2.4v-8.44c0-2.67-.93-3.91-3.22-3.91-1.69,0-2.82.84-4.44,2.52v9.83h-2.41Z"/><path class="cls-1" d="M1179.87,241.19a15.39,15.39,0,0,0,0-23.9l1.34-1.22a16.59,16.59,0,0,1,0,26.34Z"/><path class="cls-1" d="M1201.13,237.86c0-2.12.29-3.66.29-5.6,0-1.13-.79-2.24-4.21-2.26v-1.51c3.42,0,4.21-1.13,4.21-2.27,0-1.82-.29-3.59-.29-5.59,0-3,1.74-3.86,5.36-3.86h1.8v1.36h-1.5c-3,0-3.6.76-3.6,2.64,0,1.65.17,3.45.17,5.25s-.64,2.81-2.64,3.16v.12c2,.35,2.64,1.28,2.64,3.16s-.17,3.48-.17,5.25.64,2.64,3.6,2.64h1.5v1.36h-1.8C1202.87,241.71,1201.13,240.84,1201.13,237.86Z"/><path class="cls-1" d="M919.24,258h2l.2,1.8h.09a7.46,7.46,0,0,1,4.87-2.15c3.8,0,5.83,2.81,5.83,7.19,0,4.79-3,7.6-6.41,7.6a6.71,6.71,0,0,1-4.21-1.82h-.05l.11,2.66v4.76h-2.4Zm10.5,6.84c0-3.1-1.16-5.16-4-5.16a6,6,0,0,0-4.12,2.09v7a5.89,5.89,0,0,0,3.74,1.62C927.88,270.42,929.74,268.33,929.74,264.85Z"/><path class="cls-1" d="M936.26,268.45c0-3.16,3-4.7,10.24-5.28-.09-1.91-1-3.54-3.74-3.54a9.88,9.88,0,0,0-4.94,1.68l-1-1.62a12.34,12.34,0,0,1,6.29-2c3.86,0,5.75,2.29,5.75,5.8v8.64h-2l-.2-1.91h-.09a9.43,9.43,0,0,1-5.54,2.26C938.43,272.45,936.26,271,936.26,268.45Zm10.24,0v-3.65c-6,.46-7.86,1.65-7.86,3.51,0,1.59,1.45,2.23,3.07,2.23A7.67,7.67,0,0,0,946.5,268.42Z"/><path class="cls-1" d="M954,258h2l.2,2.38h.12c1.48-1.54,3.1-2.73,5.3-2.73,3.34,0,4.88,2,4.88,5.68v8.76H964.1v-8.44c0-2.66-.93-3.91-3.22-3.91-1.68,0-2.81.84-4.44,2.52v9.83H954Z"/><path class="cls-1" d="M977.88,260h-6.53V258h8.93V272.1h-2.4Zm-1-6.76a1.92,1.92,0,1,1,1.91,1.86A1.81,1.81,0,0,1,976.92,253.19Z"/><path class="cls-1" d="M988.46,265.09c0-4.73,3.59-7.43,7.86-7.43a7.16,7.16,0,0,1,5.13,2.06l-1.19,1.54a5.8,5.8,0,0,0-3.85-1.6,5.19,5.19,0,0,0-5.49,5.43,5.12,5.12,0,0,0,5.43,5.36,6.68,6.68,0,0,0,4.35-1.77l1.07,1.57a8.39,8.39,0,0,1-5.6,2.2C991.76,272.45,988.46,269.76,988.46,265.09Z"/><path class="cls-1" d="M1009.89,270a2.35,2.35,0,1,1,2.35,2.46A2.33,2.33,0,0,1,1009.89,270Z"/><path class="cls-1" d="M1023,270.25l1.1-1.6a10.06,10.06,0,0,0,6.12,1.92c2.38,0,3.54-1,3.54-2.18s-.55-1.83-4.38-2.61-5.51-2-5.51-4.12,2-4,5.86-4a10.55,10.55,0,0,1,5.68,1.8l-1.16,1.54a8.3,8.3,0,0,0-4.73-1.48c-2.38,0-3.25,1-3.25,2s1.22,1.74,4.12,2.35c4.67,1,5.81,2.17,5.81,4.35s-2.24,4.2-6.27,4.2A12.36,12.36,0,0,1,1023,270.25Z"/><path class="cls-1" d="M1044.31,266.62V260h-4v-1.8l4.09-.14.32-4.53h2V258h6.9V260h-6.9v6.7c0,2.53.84,3.83,3.57,3.83a9.18,9.18,0,0,0,3.36-.64l.52,1.77a12.09,12.09,0,0,1-4.4.84C1045.65,272.45,1044.31,270.1,1044.31,266.62Z"/><path class="cls-1" d="M1057.48,265.09c0-4.73,3.25-7.43,7-7.43s7,2.7,7,7.43-3.25,7.36-7,7.36S1057.48,269.76,1057.48,265.09Zm11.46,0c0-3.25-1.8-5.43-4.5-5.43s-4.5,2.18-4.5,5.43,1.8,5.36,4.5,5.36S1068.94,268.31,1068.94,265.09Z"/><path class="cls-1" d="M1075.83,258h2l.2,1.8h.09a7.46,7.46,0,0,1,4.87-2.15c3.8,0,5.83,2.81,5.83,7.19,0,4.79-3,7.6-6.41,7.6a6.68,6.68,0,0,1-4.21-1.82h-.06l.12,2.66v4.76h-2.41Zm10.5,6.84c0-3.1-1.16-5.16-4-5.16a6,6,0,0,0-4.12,2.09v7a5.89,5.89,0,0,0,3.74,1.62C1084.48,270.42,1086.33,268.33,1086.33,264.85Z"/><path class="cls-1" d="M1096.57,264a16.15,16.15,0,0,1,6.5-13.17l1.33,1.22a15.41,15.41,0,0,0,0,23.9l-1.33,1.22A16.15,16.15,0,0,1,1096.57,264Z"/><path class="cls-1" d="M1111.47,276a15.39,15.39,0,0,0,0-23.9l1.34-1.22a16.59,16.59,0,0,1,0,26.34Z"/><path class="cls-1" d="M1131,276.77c2.47-1.1,3.69-2.66,3.66-5.07l-.53-2.67,1.63,2.29a2.28,2.28,0,0,1-3.89-1.51,2.16,2.16,0,0,1,2.32-2.2c1.71,0,2.61,1.42,2.61,3.71,0,3.4-1.91,5.77-5.1,7Zm.67-17.17a2.35,2.35,0,1,1,2.35,2.47A2.34,2.34,0,0,1,1131.69,259.6Z"/><path class="cls-1" d="M921.47,305.34h-.09l-.23,1.56h-1.91V286.25h2.4v5.63l-.11,2.73h.08a6.93,6.93,0,0,1,4.73-2.15c3.8,0,5.86,2.81,5.86,7.16,0,4.82-3,7.63-6.35,7.63A6.94,6.94,0,0,1,921.47,305.34Zm8.27-5.69c0-3.1-1.16-5.16-4-5.16a6,6,0,0,0-4.12,2.09v7a5.91,5.91,0,0,0,3.8,1.62C927.88,305.22,929.74,303.13,929.74,299.65Z"/><path class="cls-1" d="M935.91,299.83a7.08,7.08,0,0,1,7.19-7.37c4.06,0,6.44,2.64,6.44,6.61a9.53,9.53,0,0,1-.11,1.45H937.51v-1.85H948l-.61.66c0-3.33-1.66-5-4.24-5s-4.87,2-4.87,5.49,2.38,5.51,5.51,5.51a7.61,7.61,0,0,0,4.29-1.34l.87,1.57a9.63,9.63,0,0,1-5.45,1.68C939.28,307.25,935.91,304.53,935.91,299.83Z"/><path class="cls-1" d="M958.65,287.88h2.78l6.41,19h-2.61L962,296.29c-.66-2.12-1.3-4.21-1.88-6.41H960c-.61,2.2-1.22,4.29-1.88,6.41l-3.34,10.61h-2.49Zm-3,11.28h8.73v2h-8.73Z"/><path class="cls-1" d="M969,292.81h2.38L973,301c.26,1.33.46,2.55.64,3.88h.12a34.26,34.26,0,0,1,.81-3.88l1.74-7.31h2.38L980.4,301a38.61,38.61,0,0,1,.87,3.88h.11c.24-1.33.38-2.55.64-3.88l1.69-8.18h2.2l-3,14.09h-3.07l-1.63-6.72c-.23-1-.46-2.38-.69-4.18h-.12c-.23,1.8-.46,3.19-.69,4.18l-1.57,6.72H972Z"/><path class="cls-1" d="M988.11,299.83a7.08,7.08,0,0,1,7.19-7.37c4.06,0,6.44,2.64,6.44,6.61a9.53,9.53,0,0,1-.11,1.45H989.71v-1.85h10.5l-.61.66c0-3.33-1.66-5-4.24-5s-4.87,2-4.87,5.49,2.38,5.51,5.51,5.51a7.61,7.61,0,0,0,4.29-1.34l.87,1.57a9.63,9.63,0,0,1-5.45,1.68C991.47,307.25,988.11,304.53,988.11,299.83Z"/><path class="cls-1" d="M1005.6,305.05l1.1-1.6a10.06,10.06,0,0,0,6.12,1.92c2.38,0,3.54-1,3.54-2.18s-.55-1.83-4.38-2.61-5.51-2-5.51-4.12,2-4,5.86-4a10.55,10.55,0,0,1,5.68,1.8l-1.16,1.53a8.37,8.37,0,0,0-4.73-1.47c-2.38,0-3.24.95-3.24,2s1.21,1.74,4.11,2.35c4.67,1,5.8,2.17,5.8,4.35s-2.23,4.2-6.26,4.2A12.36,12.36,0,0,1,1005.6,305.05Z"/><path class="cls-1" d="M1022.68,299.89c0-4.73,3.25-7.43,7-7.43s7,2.7,7,7.43-3.25,7.36-7,7.36S1022.68,304.56,1022.68,299.89Zm11.45,0c0-3.25-1.79-5.43-4.49-5.43s-4.5,2.18-4.5,5.43,1.8,5.36,4.5,5.36S1034.13,303.1,1034.13,299.89Z"/><path class="cls-1" d="M1040,292.81h1.91l.21,1.85h.06a3.49,3.49,0,0,1,3.21-2.2c1.4,0,2.27.81,2.67,2.44.82-1.51,1.69-2.44,3.31-2.44,2,0,3.13,1.54,3.13,4.35V306.9h-2.38V297c0-1.62-.46-2.46-1.5-2.46s-1.51.72-2.27,2.17V306.9h-2.2V297c0-1.62-.41-2.46-1.45-2.46s-1.63.72-2.32,2.17V306.9H1040Z"/><path class="cls-1" d="M1057.71,299.83a7.08,7.08,0,0,1,7.19-7.37c4.06,0,6.44,2.64,6.44,6.61a9.53,9.53,0,0,1-.11,1.45H1059.3v-1.85h10.5l-.6.66c0-3.33-1.66-5-4.24-5s-4.87,2-4.87,5.49,2.38,5.51,5.51,5.51a7.61,7.61,0,0,0,4.29-1.34l.87,1.57a9.63,9.63,0,0,1-5.45,1.68C1061.07,307.25,1057.71,304.53,1057.71,299.83Z"/><path class="cls-1" d="M1079.17,298.84a16.12,16.12,0,0,1,6.5-13.17l1.33,1.22a15.41,15.41,0,0,0,0,23.9l-1.33,1.22A16.12,16.12,0,0,1,1079.17,298.84Z"/><path class="cls-1" d="M1094.08,310.79a15.41,15.41,0,0,0,0-23.9l1.33-1.22a16.59,16.59,0,0,1,0,26.34Z"/><path class="cls-1" d="M1113.62,311.57c2.47-1.1,3.68-2.66,3.66-5.07l-.53-2.67,1.63,2.29a2.28,2.28,0,0,1-3.89-1.51,2.16,2.16,0,0,1,2.32-2.2c1.71,0,2.61,1.42,2.61,3.71,0,3.4-1.91,5.77-5.1,7Zm.67-17.17a2.35,2.35,0,1,1,2.35,2.47A2.34,2.34,0,0,1,1114.29,294.4Z"/><path class="cls-1" d="M918.6,339.85l1.1-1.6a10.06,10.06,0,0,0,6.12,1.92c2.38,0,3.54-1,3.54-2.18s-.55-1.83-4.38-2.61-5.51-2-5.51-4.12,2-4,5.86-4a10.55,10.55,0,0,1,5.68,1.8l-1.16,1.54a8.3,8.3,0,0,0-4.73-1.48c-2.37,0-3.24.95-3.24,2s1.21,1.74,4.11,2.35c4.67,1,5.8,2.17,5.8,4.35s-2.23,4.2-6.26,4.2A12.36,12.36,0,0,1,918.6,339.85Z"/><path class="cls-1" d="M935.68,334.69c0-4.73,3.25-7.43,7-7.43s7,2.7,7,7.43-3.25,7.36-7,7.36S935.68,339.36,935.68,334.69Zm11.46,0c0-3.25-1.8-5.43-4.5-5.43s-4.5,2.18-4.5,5.43,1.8,5.36,4.5,5.36S947.14,337.91,947.14,334.69Z"/><path class="cls-1" d="M958.47,337V323h-5v-1.95h7.4v16.1c0,2,1.1,2.9,2.79,2.9a6.24,6.24,0,0,0,2.63-.64l.61,1.8a8.55,8.55,0,0,1-3.77.84C960.13,342.05,958.47,340.31,958.47,337Z"/><path class="cls-1" d="M970.19,327.61h2.46l3.25,8c.55,1.43,1.07,2.82,1.57,4.18h.11c.5-1.36,1-2.75,1.54-4.18l3.25-8h2.32l-5.86,14.1h-2.7Z"/><path class="cls-1" d="M988.11,334.63a7.08,7.08,0,0,1,7.19-7.37c4.06,0,6.44,2.64,6.44,6.61a9.53,9.53,0,0,1-.11,1.45H989.71v-1.85h10.5l-.61.66c0-3.33-1.66-5-4.24-5s-4.87,2-4.87,5.48,2.38,5.51,5.51,5.51a7.61,7.61,0,0,0,4.29-1.34l.87,1.57a9.63,9.63,0,0,1-5.45,1.68C991.47,342.05,988.11,339.33,988.11,334.63Z"/><path class="cls-1" d="M1006.5,322.68h5.74c4.21,0,7,1.42,7,5.59s-2.87,5.89-7,5.89h-3.31v7.55h-2.43Zm5.45,9.51c3.31,0,4.9-1.22,4.9-3.92s-1.62-3.62-4.9-3.62h-3v7.54Z"/><path class="cls-1" d="M1025.14,327.61h2l.24,3.33h0a7.44,7.44,0,0,1,6.3-3.68,5.86,5.86,0,0,1,2.78.58l-.55,2.06a7,7,0,0,0-2.61-.46c-2.12,0-4.12,1.07-5.8,4v8.24h-2.41Z"/><path class="cls-1" d="M1040.08,334.69c0-4.73,3.25-7.43,7-7.43s7,2.7,7,7.43-3.25,7.36-7,7.36S1040.08,339.36,1040.08,334.69Zm11.46,0c0-3.25-1.8-5.43-4.5-5.43s-4.5,2.18-4.5,5.43,1.8,5.36,4.5,5.36S1051.54,337.91,1051.54,334.69Z"/><path class="cls-1" d="M1060.67,340.14h-.09l-.23,1.57h-1.92V321.05h2.41v5.63l-.11,2.73h.08a6.93,6.93,0,0,1,4.73-2.15c3.8,0,5.86,2.81,5.86,7.16,0,4.82-3,7.63-6.35,7.63A6.94,6.94,0,0,1,1060.67,340.14Zm8.27-5.69c0-3.1-1.16-5.16-4-5.16a6,6,0,0,0-4.12,2.09v7a5.91,5.91,0,0,0,3.8,1.62C1067.08,340,1068.94,337.93,1068.94,334.45Z"/><path class="cls-1" d="M1080.27,337V323h-5v-1.95h7.4v16.1c0,2,1.1,2.9,2.78,2.9a6.25,6.25,0,0,0,2.64-.64l.61,1.8a8.55,8.55,0,0,1-3.77.84C1081.93,342.05,1080.27,340.31,1080.27,337Z"/><path class="cls-1" d="M1092.51,334.63a7.08,7.08,0,0,1,7.19-7.37c4.06,0,6.44,2.64,6.44,6.61a11,11,0,0,1-.11,1.45H1094.1v-1.85h10.51l-.61.66c0-3.33-1.66-5-4.24-5s-4.87,2-4.87,5.48,2.38,5.51,5.51,5.51a7.61,7.61,0,0,0,4.29-1.34l.87,1.57a9.63,9.63,0,0,1-5.45,1.68C1095.87,342.05,1092.51,339.33,1092.51,334.63Z"/><path class="cls-1" d="M1109.62,327.61h1.91l.21,1.85h0a3.51,3.51,0,0,1,3.22-2.2c1.4,0,2.27.81,2.67,2.44.81-1.51,1.69-2.44,3.31-2.44,2,0,3.13,1.54,3.13,4.35v10.1h-2.38v-9.93c0-1.62-.46-2.46-1.51-2.46s-1.5.72-2.26,2.17v10.22h-2.2v-9.93c0-1.62-.41-2.46-1.45-2.46s-1.63.72-2.32,2.17v10.22h-2.38Z"/><path class="cls-1" d="M1131.37,333.64a16.12,16.12,0,0,1,6.5-13.17l1.33,1.22a15.41,15.41,0,0,0,0,23.9l-1.33,1.22A16.12,16.12,0,0,1,1131.37,333.64Z"/><path class="cls-1" d="M1146.27,345.59a15.39,15.39,0,0,0,0-23.9l1.34-1.22a16.59,16.59,0,0,1,0,26.34Z"/><path class="cls-1" d="M1165.82,346.38c2.47-1.11,3.68-2.67,3.65-5.08l-.52-2.67,1.63,2.29a2.28,2.28,0,0,1-3.89-1.51,2.16,2.16,0,0,1,2.32-2.2c1.71,0,2.61,1.42,2.61,3.71,0,3.4-1.91,5.77-5.1,7Zm.67-17.18a2.35,2.35,0,1,1,2.35,2.47A2.34,2.34,0,0,1,1166.49,329.2Z"/><path class="cls-1" d="M883.41,379.55h1.48c3,0,3.62-.75,3.62-2.64s-.17-3.28-.17-5.25.61-2.81,2.61-3.16v-.12c-2-.35-2.61-1.27-2.61-3.16s.17-3.6.17-5.25c0-1.88-.66-2.64-3.62-2.64h-1.48V356h1.77c3.65,0,5.34.87,5.34,3.86,0,2-.27,3.77-.27,5.59,0,1.14.79,2.24,4.21,2.27v1.51c-3.42,0-4.21,1.13-4.21,2.26,0,1.94.27,3.48.27,5.6,0,3-1.69,3.85-5.34,3.85h-1.77Z"/><path class="cls-1" d="M882.51,404.23a7.08,7.08,0,0,1,7.19-7.37c4.06,0,6.44,2.64,6.44,6.61a9.53,9.53,0,0,1-.11,1.45H884.11v-1.85h10.5l-.61.66c0-3.33-1.66-5-4.24-5s-4.87,2-4.87,5.49,2.38,5.51,5.51,5.51a7.61,7.61,0,0,0,4.29-1.34l.87,1.57a9.63,9.63,0,0,1-5.45,1.68C885.88,411.65,882.51,408.93,882.51,404.23Z"/><path class="cls-1" d="M905.07,406.58v-14h-5v-2h7.4v16.1c0,2,1.1,2.9,2.79,2.9a6.31,6.31,0,0,0,2.64-.64l.6,1.8a8.55,8.55,0,0,1-3.77.84C906.73,411.65,905.07,409.91,905.07,406.58Z"/><path class="cls-1" d="M917.4,409.45l1.1-1.6a10.06,10.06,0,0,0,6.12,1.92c2.38,0,3.54-1,3.54-2.18s-.55-1.83-4.38-2.61-5.51-2-5.51-4.12,2-4,5.86-4a10.55,10.55,0,0,1,5.68,1.8l-1.16,1.53a8.37,8.37,0,0,0-4.73-1.47c-2.38,0-3.25.95-3.25,2s1.22,1.74,4.12,2.35c4.67,1,5.81,2.17,5.81,4.35s-2.24,4.2-6.27,4.2A12.36,12.36,0,0,1,917.4,409.45Z"/><path class="cls-1" d="M934.71,404.23a7.08,7.08,0,0,1,7.19-7.37c4.06,0,6.44,2.64,6.44,6.61a9.53,9.53,0,0,1-.11,1.45H936.3v-1.85h10.51l-.61.66c0-3.33-1.66-5-4.24-5s-4.87,2-4.87,5.49,2.38,5.51,5.51,5.51a7.61,7.61,0,0,0,4.29-1.34l.87,1.57a9.63,9.63,0,0,1-5.45,1.68C938.07,411.65,934.71,408.93,934.71,404.23Z"/><path class="cls-1" d="M974.93,411.86c0-2.12.29-3.66.29-5.6,0-1.13-.78-2.24-4.2-2.26v-1.51c3.42,0,4.2-1.13,4.2-2.27,0-1.82-.29-3.59-.29-5.59,0-3,1.74-3.86,5.37-3.86h1.8v1.36h-1.51c-3,0-3.6.76-3.6,2.64,0,1.65.18,3.45.18,5.25s-.64,2.81-2.64,3.16v.12c2,.35,2.64,1.28,2.64,3.16s-.18,3.48-.18,5.25.64,2.64,3.6,2.64h1.51v1.36h-1.8C976.67,415.71,974.93,414.84,974.93,411.86Z"/><path class="cls-1" d="M921.47,444.54h-.09l-.23,1.56h-1.91V425.45h2.4v5.63l-.11,2.73h.08a6.93,6.93,0,0,1,4.73-2.15c3.8,0,5.86,2.81,5.86,7.16,0,4.82-3,7.63-6.35,7.63A6.94,6.94,0,0,1,921.47,444.54Zm8.27-5.69c0-3.1-1.16-5.16-4-5.16a6,6,0,0,0-4.12,2.09v7a5.91,5.91,0,0,0,3.8,1.62C927.88,444.42,929.74,442.33,929.74,438.85Z"/><path class="cls-1" d="M935.91,439a7.08,7.08,0,0,1,7.19-7.37c4.06,0,6.44,2.64,6.44,6.61a9.53,9.53,0,0,1-.11,1.45H937.51v-1.85H948l-.61.66c0-3.33-1.66-5-4.24-5s-4.87,2-4.87,5.49,2.38,5.51,5.51,5.51a7.61,7.61,0,0,0,4.29-1.34l.87,1.57a9.63,9.63,0,0,1-5.45,1.68C939.28,446.45,935.91,443.73,935.91,439Z"/><path class="cls-1" d="M958.65,427.08h2.78l6.41,19h-2.61L962,435.49c-.66-2.12-1.3-4.21-1.88-6.41H960c-.61,2.2-1.22,4.29-1.88,6.41l-3.34,10.61h-2.49Zm-3,11.28h8.73v2h-8.73Z"/><path class="cls-1" d="M969,432h2.38l1.68,8.18c.26,1.33.46,2.55.64,3.88h.12a34.26,34.26,0,0,1,.81-3.88l1.74-7.31h2.38l1.68,7.31a38.61,38.61,0,0,1,.87,3.88h.11c.24-1.33.38-2.55.64-3.88l1.69-8.18h2.2l-3,14.09h-3.07l-1.63-6.72c-.23-1-.46-2.38-.69-4.18h-.12c-.23,1.8-.46,3.19-.69,4.18l-1.57,6.72H972Z"/><path class="cls-1" d="M988.11,439a7.08,7.08,0,0,1,7.19-7.37c4.06,0,6.44,2.64,6.44,6.61a9.53,9.53,0,0,1-.11,1.45H989.71v-1.85h10.5l-.61.66c0-3.33-1.66-5-4.24-5s-4.87,2-4.87,5.49,2.38,5.51,5.51,5.51a7.61,7.61,0,0,0,4.29-1.34l.87,1.57a9.63,9.63,0,0,1-5.45,1.68C991.47,446.45,988.11,443.73,988.11,439Z"/><path class="cls-1" d="M1005.6,444.25l1.1-1.6a10.06,10.06,0,0,0,6.12,1.92c2.38,0,3.54-1,3.54-2.18s-.55-1.83-4.38-2.61-5.51-2-5.51-4.12,2-4,5.86-4a10.55,10.55,0,0,1,5.68,1.8l-1.16,1.54a8.3,8.3,0,0,0-4.73-1.48c-2.38,0-3.24,1-3.24,2s1.21,1.74,4.11,2.35c4.67,1,5.8,2.17,5.8,4.35s-2.23,4.2-6.26,4.2A12.36,12.36,0,0,1,1005.6,444.25Z"/><path class="cls-1" d="M1022.68,439.09c0-4.73,3.25-7.43,7-7.43s7,2.7,7,7.43-3.25,7.36-7,7.36S1022.68,443.76,1022.68,439.09Zm11.45,0c0-3.25-1.79-5.43-4.49-5.43s-4.5,2.18-4.5,5.43,1.8,5.36,4.5,5.36S1034.13,442.31,1034.13,439.09Z"/><path class="cls-1" d="M1040,432h1.91l.21,1.85h.06a3.49,3.49,0,0,1,3.21-2.2c1.4,0,2.27.81,2.67,2.44.82-1.51,1.69-2.44,3.31-2.44,2,0,3.13,1.54,3.13,4.35V446.1h-2.38v-9.92c0-1.62-.46-2.46-1.5-2.46s-1.51.72-2.27,2.17V446.1h-2.2v-9.92c0-1.62-.41-2.46-1.45-2.46s-1.63.72-2.32,2.17V446.1H1040Z"/><path class="cls-1" d="M1057.71,439a7.08,7.08,0,0,1,7.19-7.37c4.06,0,6.44,2.64,6.44,6.61a9.53,9.53,0,0,1-.11,1.45H1059.3v-1.85h10.5l-.6.66c0-3.33-1.66-5-4.24-5s-4.87,2-4.87,5.49,2.38,5.51,5.51,5.51a7.61,7.61,0,0,0,4.29-1.34l.87,1.57a9.63,9.63,0,0,1-5.45,1.68C1061.07,446.45,1057.71,443.73,1057.71,439Z"/><path class="cls-1" d="M1079.17,438a16.12,16.12,0,0,1,6.5-13.17l1.33,1.22a15.41,15.41,0,0,0,0,23.9l-1.33,1.22A16.12,16.12,0,0,1,1079.17,438Z"/><path class="cls-1" d="M1094.08,450a15.41,15.41,0,0,0,0-23.9l1.33-1.22a16.59,16.59,0,0,1,0,26.34Z"/><path class="cls-1" d="M1113.62,450.77c2.47-1.1,3.68-2.66,3.66-5.07l-.53-2.67,1.63,2.29a2.28,2.28,0,0,1-3.89-1.51,2.16,2.16,0,0,1,2.32-2.2c1.71,0,2.61,1.42,2.61,3.71,0,3.4-1.91,5.77-5.1,7Zm.67-17.17a2.35,2.35,0,1,1,2.35,2.47A2.34,2.34,0,0,1,1114.29,433.6Z"/><path class="cls-1" d="M883.41,484h1.48c3,0,3.62-.75,3.62-2.64s-.17-3.28-.17-5.25.61-2.81,2.61-3.16v-.12c-2-.35-2.61-1.27-2.61-3.16s.17-3.6.17-5.25c0-1.88-.66-2.64-3.62-2.64h-1.48v-1.36h1.77c3.65,0,5.34.87,5.34,3.86,0,2-.27,3.77-.27,5.59,0,1.14.79,2.24,4.21,2.27v1.51c-3.42,0-4.21,1.13-4.21,2.26,0,1.94.27,3.48.27,5.6,0,3-1.69,3.85-5.34,3.85h-1.77Z"/><path class="cls-1" d="M847.41,518.75h1.48c3,0,3.62-.75,3.62-2.64s-.17-3.28-.17-5.25.61-2.81,2.61-3.16v-.12c-2-.34-2.61-1.27-2.61-3.16s.17-3.6.17-5.25c0-1.88-.66-2.64-3.62-2.64h-1.48v-1.36h1.77c3.65,0,5.34.87,5.34,3.86,0,2-.27,3.77-.27,5.59,0,1.14.79,2.24,4.21,2.27v1.51c-3.42,0-4.21,1.13-4.21,2.26,0,1.94.27,3.48.27,5.6,0,3-1.69,3.85-5.34,3.85h-1.77Z"/><path class="cls-1" d="M621.84,431.11V427l23.94-16.18V416l-19.26,13v.26l19.26,13v5.14Z"/><path class="cls-1" d="M658.62,404.67h5.32v12.45l-.32,7.38h.19c3.15-3.46,6.81-6.09,11.62-6.09,7.38,0,10.78,4.36,10.78,12.58v19.38h-5.33V431.69c0-5.9-2-8.66-7.12-8.66-3.72,0-6.22,1.86-9.82,5.58v21.76h-5.32Z"/><path class="cls-1" d="M704.38,438.24V423.48h-8.86v-4l9.05-.32.7-10h4.43v10H725v4.3H709.7V438.3c0,5.59,1.86,8.47,7.9,8.47a20.41,20.41,0,0,0,7.44-1.41l1.16,3.92a27.39,27.39,0,0,1-9.76,1.86C707.33,451.14,704.38,445.94,704.38,438.24Z"/><path class="cls-1" d="M733.39,419.18h4.23l.45,4.1h.13c1.6-2.88,3.53-4.87,7.12-4.87,3.08,0,5,1.79,5.91,5.39,1.8-3.34,3.72-5.39,7.31-5.39,4.37,0,6.94,3.4,6.94,9.62v22.34h-5.27V428.42c0-3.6-1-5.46-3.33-5.46s-3.34,1.61-5,4.82v22.59H747V428.42c0-3.6-.9-5.46-3.21-5.46s-3.59,1.61-5.13,4.82v22.59h-5.26Z"/><path class="cls-1" d="M784,439.91V409h-11v-4.3h16.37v35.62c0,4.49,2.44,6.42,6.16,6.42a14.12,14.12,0,0,0,5.84-1.41l1.35,4a19,19,0,0,1-8.35,1.86C787.62,451.14,784,447.29,784,439.91Z"/><path class="cls-1" d="M813.55,442.15l19.25-13v-.26l-19.25-13v-5.14L837.49,427v4.1l-23.94,16.18Z"/><path class="cls-1" d="M429.22,441.14c17.24,0,27.78,10,27.78,24a20.06,20.06,0,0,1-6.54,14.71l-4.33-3.92A14.34,14.34,0,0,0,451,465.15c0-10.21-8.25-16.91-21.56-16.91-13.48,0-21.9,6.7-21.9,16.91,0,4.91,2.13,8.66,5.88,12l-4.16,3.92a20.69,20.69,0,0,1-7.76-16.58C401.45,451.27,411.74,441.14,429.22,441.14Z"/><path class="cls-1" d="M409.37,490.31l4.74,4.09a22.54,22.54,0,0,0-6.62,15.68c0,7.35,3.52,11.6,8.42,11.6,5.72,0,7.35-4.16,9.64-9.56l3.43-7.76c2.12-5.31,5.88-11.52,13.8-11.52,8.17,0,14.22,7.36,14.22,17.57a23.37,23.37,0,0,1-6.62,16.5L446,523.32a18.83,18.83,0,0,0,5-13.16c0-6.2-2.94-10.37-7.76-10.37-5.14,0-7,5-8.82,9.56L431,516.86c-2.61,6.62-6.37,11.85-14.3,11.85-8.49,0-15.27-7.19-15.27-19A27.23,27.23,0,0,1,409.37,490.31Z"/><path class="cls-1" d="M409.37,539.32l4.74,4.09a22.54,22.54,0,0,0-6.62,15.68c0,7.36,3.52,11.6,8.42,11.6,5.72,0,7.35-4.16,9.64-9.55l3.43-7.76c2.12-5.32,5.88-11.52,13.8-11.52,8.17,0,14.22,7.35,14.22,17.56a23.37,23.37,0,0,1-6.62,16.5L446,572.33a18.81,18.81,0,0,0,5-13.16c0-6.2-2.94-10.37-7.76-10.37-5.14,0-7,5-8.82,9.56L431,565.87c-2.61,6.62-6.37,11.85-14.3,11.85-8.49,0-15.27-7.19-15.27-19A27.24,27.24,0,0,1,409.37,539.32Z"/><path class="cls-1" d="M408.8,587.52l4.41,3.43a21.07,21.07,0,0,0-6.13,14.95c0,7.11,3.68,12.42,9.48,12.42,6.21,0,10.38-5.23,10.38-18.87h5.14c0,12.33,4.25,17.07,9.72,17.07,5,0,8.17-4.33,8.17-10.62a19.73,19.73,0,0,0-5.22-12.83l4.24-3.59a25.27,25.27,0,0,1,6.54,16.67c0,9.8-4.82,17.23-13.24,17.23-6.29,0-10.29-4.65-12.41-11.11h-.33c-1.47,7-6.05,12.91-13.23,12.91-9.24,0-14.87-8.5-14.87-18.87C401.45,597.32,405,591.36,408.8,587.52Z"/><path class="cls-1" d="M818.25,336.89l-4.17-4.33c4.74-3.1,7-7.35,7-11.52,0-7.6-3.84-11-12.66-11H778.3V332.4h-5.8V303.07H809c10,0,18.14,4.49,18.14,17.81A18.59,18.59,0,0,1,818.25,336.89Z"/><path class="cls-1" d="M819.23,288.94l-4.74-4.08a22.52,22.52,0,0,0,6.62-15.69c0-7.35-3.51-11.6-8.41-11.6-5.72,0-7.36,4.17-9.64,9.56l-3.44,7.76c-2.12,5.31-5.88,11.52-13.8,11.52-8.17,0-14.22-7.35-14.22-17.57a23.37,23.37,0,0,1,6.62-16.5l4.41,3.6a18.83,18.83,0,0,0-5,13.15c0,6.21,2.94,10.37,7.76,10.37,5.15,0,7-5,8.82-9.55l3.35-7.52c2.62-6.62,6.38-11.85,14.3-11.85,8.5,0,15.28,7.19,15.28,19A27.24,27.24,0,0,1,819.23,288.94Z"/><path class="cls-1" d="M798.48,225.06,772.58,240v-7.6l13.65-7.51c2.45-1.39,4.65-2.62,7.84-4.33v-.33c-3.19-1.47-5.39-2.53-7.84-3.84l-13.65-7.35v-7.27l26.23,14.95,27.37-16v7.68l-14.38,8c-2.7,1.47-5.39,2.94-8.66,4.74v.33c3.27,1.55,6,2.94,8.66,4.32l14.38,8v7.27Z"/><path class="cls-1" d="M892.49,734.38a6.62,6.62,0,1,1,7-6.62A6.62,6.62,0,0,1,892.49,734.38Z"/><path class="cls-1" d="M893.23,697.46l-4.49-3.11a28.35,28.35,0,0,0,5.39-17.23c0-6.7-2.78-10-6.13-10-3,0-5.15,1.55-7.35,12.34C878.52,689.86,875,695,869.05,695c-6.38,0-11.28-5.64-11.28-16.5a29.81,29.81,0,0,1,5.07-16l4.33,3.27A23.38,23.38,0,0,0,863,679.08c0,6.7,2.7,9.15,5.72,9.15,3.43,0,4.9-3.43,6.62-11.6,2.86-13.16,6.12-16.34,12.25-16.34,6.46,0,11.85,6.29,11.85,17.64A34.88,34.88,0,0,1,893.23,697.46Z"/><path class="cls-1" d="M858.75,650.16v-6.94l22.47-9.15q6-2.33,11.76-4.41v-.33c-3.84-1.39-7.76-2.7-11.76-4.33l-22.47-9.15v-6.53l39.71,16.5v7.6Z"/><path class="cls-1" d="M905.73,599.35c-3.19,0-6.37-2.28-8.82-6.53h-.33A7.21,7.21,0,0,1,890,596.9c-2.53,0-5.39-1.71-7.43-4.74h-.33A12.64,12.64,0,0,1,872,597.07c-8.66,0-14.22-7.19-14.22-15.61a16.2,16.2,0,0,1,1-5.88V559.16h5.48v10.29a12,12,0,0,1,8-3.35c8.5,0,13.65,6.78,13.65,15.36a17.14,17.14,0,0,1-1.47,6.7c1.22,2,2.69,3.11,4.57,3.11,3.1,0,4.58-3,4.58-8.26v-8.9c0-10.21,2.61-15.11,9.31-15.11,7.43,0,13.89,8.57,13.89,22C916.76,592.65,912.75,599.35,905.73,599.35Zm-33.74-27a9.15,9.15,0,1,0,9.39,9.15A9,9,0,0,0,872,572.31Zm31.94-6.7c-3.76,0-4.82,3-4.82,9.07v7.76a22.53,22.53,0,0,1-.65,6c2,3.76,4.33,5.06,6.61,5.06,4.17,0,6.79-4.49,6.79-13C911.86,571.33,908,565.61,903.93,565.61Z"/><path class="cls-1" d="M462.14,105.5h4l.41,4.82h.24c3-3.12,6.28-5.53,10.75-5.53,6.76,0,9.87,4,9.87,11.52v17.74h-4.88V117c0-5.4-1.88-7.93-6.52-7.93-3.41,0-5.7,1.71-9,5.11v19.92h-4.87Z"/><path class="cls-1" d="M497.38,105.5h4l.41,3.64H502a15.17,15.17,0,0,1,9.87-4.35c7.7,0,11.81,5.7,11.81,14.57,0,9.7-6.11,15.39-13,15.39a13.52,13.52,0,0,1-8.52-3.7H502l.24,5.41v9.63h-4.88Zm21.27,13.86c0-6.28-2.35-10.45-8-10.45-2.53,0-5.46,1.29-8.34,4.23v14.21a11.91,11.91,0,0,0,7.58,3.29C514.89,130.64,518.65,126.41,518.65,119.36Z"/><path class="cls-1" d="M541.73,119.24l-10-13.74h5.35l4.52,6.23c1,1.58,2.18,3.29,3.35,4.81h.24c1-1.52,2.23-3.29,3.23-4.87l4.23-6.17h5.17l-10.11,14.16,10.93,14.39h-5.4l-4.94-6.58c-1.23-1.59-2.53-3.53-3.76-5.17h-.23c-1.18,1.7-2.35,3.41-3.53,5.23l-4.7,6.52h-5.17Z"/><path class="cls-1" d="M602.35,119.83c0-9.57,7.28-15,15.92-15a14.52,14.52,0,0,1,10.4,4.17l-2.41,3.12a11.77,11.77,0,0,0-7.81-3.23c-6.58,0-11.11,4.4-11.11,11s4.47,10.87,11,10.87a13.62,13.62,0,0,0,8.81-3.58l2.17,3.17A17,17,0,0,1,618,134.75C609.05,134.75,602.35,129.29,602.35,119.83Z"/><path class="cls-1" d="M641.41,105.5h4.05l.47,6.75h.12c3-4.64,7.46-7.46,12.75-7.46a12,12,0,0,1,5.64,1.18l-1.12,4.17a14.18,14.18,0,0,0-5.28-.94c-4.29,0-8.35,2.17-11.75,8.16v16.69h-4.88Z"/><path class="cls-1" d="M672.13,119.71c0-9.28,6.93-14.92,14.57-14.92,8.22,0,13,5.35,13,13.4a20.88,20.88,0,0,1-.23,2.93H675.36v-3.76h21.27l-1.23,1.36c0-6.76-3.35-10.11-8.58-10.11s-9.87,4-9.87,11.1c0,7.41,4.82,11.17,11.16,11.17a15.49,15.49,0,0,0,8.69-2.71l1.77,3.18a19.56,19.56,0,0,1-11.05,3.4C679,134.75,672.13,129.23,672.13,119.71Z"/><path class="cls-1" d="M708.08,126.65c0-6.41,6-9.52,20.74-10.69-.18-3.88-2.06-7.17-7.58-7.17-3.7,0-7.34,1.76-10,3.41l-1.94-3.29c2.94-1.88,7.76-4.12,12.75-4.12,7.81,0,11.63,4.64,11.63,11.75v17.51h-4.05l-.41-3.88h-.18c-3.11,2.47-7.22,4.58-11.22,4.58C712.49,134.75,708.08,131.76,708.08,126.65Zm20.74-.06v-7.4c-12.22.94-15.92,3.34-15.92,7.1,0,3.24,2.93,4.53,6.22,4.53S725.53,129.29,728.82,126.59Z"/><path class="cls-1" d="M750.73,123V109.43h-8.11v-3.64l8.28-.29.65-9.17h4.05v9.17h14v3.93h-14V123c0,5.12,1.71,7.76,7.23,7.76a18.81,18.81,0,0,0,6.81-1.29l1.06,3.58a25,25,0,0,1-8.93,1.7C753.43,134.75,750.73,130,750.73,123Z"/><path class="cls-1" d="M777.86,119.71c0-9.28,6.93-14.92,14.57-14.92,8.23,0,13,5.35,13,13.4a19.46,19.46,0,0,1-.23,2.93H781.09v-3.76h21.27l-1.23,1.36c0-6.76-3.35-10.11-8.58-10.11s-9.87,4-9.87,11.1c0,7.41,4.82,11.17,11.16,11.17a15.55,15.55,0,0,0,8.7-2.71l1.76,3.18a19.56,19.56,0,0,1-11,3.4C784.68,134.75,777.86,129.23,777.86,119.71Z"/><path class="cls-1" d="M814.1,112.84h25.27v3.64H814.1Z"/><path class="cls-1" d="M852.87,105.5h4.06l.47,6.75h.11c3-4.64,7.46-7.46,12.75-7.46A12,12,0,0,1,875.9,106l-1.11,4.17a14.27,14.27,0,0,0-5.29-.94c-4.29,0-8.34,2.17-11.75,8.16v16.69h-4.88Z"/><path class="cls-1" d="M883.59,119.71c0-9.28,6.94-14.92,14.57-14.92,8.23,0,13,5.35,13,13.4a19.46,19.46,0,0,1-.23,2.93H886.82v-3.76h21.27l-1.23,1.36c0-6.76-3.35-10.11-8.58-10.11s-9.87,4-9.87,11.1c0,7.41,4.82,11.17,11.16,11.17a15.55,15.55,0,0,0,8.7-2.71l1.76,3.18a19.55,19.55,0,0,1-11,3.4C890.41,134.75,883.59,129.23,883.59,119.71Z"/><path class="cls-1" d="M919.54,126.65c0-6.41,6-9.52,20.74-10.69-.18-3.88-2.06-7.17-7.58-7.17-3.7,0-7.34,1.76-10,3.41l-1.93-3.29c2.93-1.88,7.75-4.12,12.74-4.12,7.82,0,11.64,4.64,11.64,11.75v17.51H941.1l-.41-3.88h-.18c-3.11,2.47-7.22,4.58-11.22,4.58C924,134.75,919.54,131.76,919.54,126.65Zm20.74-.06v-7.4c-12.22.94-15.92,3.34-15.92,7.1,0,3.24,2.94,4.53,6.23,4.53S937,129.29,940.28,126.59Z"/><path class="cls-1" d="M954.79,119.83c0-9.57,7.28-15,15.92-15A14.49,14.49,0,0,1,981.1,109l-2.4,3.12a11.77,11.77,0,0,0-7.82-3.23c-6.58,0-11.1,4.4-11.1,11s4.46,10.87,11,10.87a13.62,13.62,0,0,0,8.82-3.58l2.17,3.17a17,17,0,0,1-11.34,4.46C961.48,134.75,954.79,129.29,954.79,119.83Z"/><path class="cls-1" d="M997.43,123V109.43h-8.11v-3.64l8.29-.29.64-9.17h4.06v9.17h14v3.93h-14V123c0,5.12,1.7,7.76,7.22,7.76a18.87,18.87,0,0,0,6.82-1.29l1,3.58a24.85,24.85,0,0,1-8.92,1.7C1000.13,134.75,997.43,130,997.43,123Z"/><path class="cls-1" d="M1025.57,112.84h25.26v3.64h-25.26Z"/><path class="cls-1" d="M1060.52,126.65c0-6.41,6-9.52,20.73-10.69-.17-3.88-2-7.17-7.57-7.17-3.7,0-7.35,1.76-10,3.41l-1.94-3.29c2.94-1.88,7.75-4.12,12.75-4.12,7.81,0,11.63,4.64,11.63,11.75v17.51h-4.05l-.41-3.88h-.18c-3.11,2.47-7.23,4.58-11.22,4.58C1064.92,134.75,1060.52,131.76,1060.52,126.65Zm20.73-.06v-7.4c-12.21.94-15.92,3.34-15.92,7.1,0,3.24,2.94,4.53,6.23,4.53S1078,129.29,1081.25,126.59Z"/><path class="cls-1" d="M1096.52,105.5h4l.41,3.64h.18a15.13,15.13,0,0,1,9.87-4.35c7.69,0,11.8,5.7,11.8,14.57,0,9.7-6.11,15.39-13,15.39a13.56,13.56,0,0,1-8.52-3.7h-.11l.23,5.41v9.63h-4.88Zm21.27,13.86c0-6.28-2.35-10.45-8-10.45-2.52,0-5.46,1.29-8.34,4.23v14.21a11.91,11.91,0,0,0,7.58,3.29C1114,130.64,1117.79,126.41,1117.79,119.36Z"/><path class="cls-1" d="M1131.77,105.5h4l.41,3.64h.18a15.13,15.13,0,0,1,9.87-4.35c7.69,0,11.81,5.7,11.81,14.57,0,9.7-6.11,15.39-13,15.39a13.52,13.52,0,0,1-8.51-3.7h-.12l.23,5.41v9.63h-4.87ZM1153,119.36c0-6.28-2.35-10.45-8-10.45-2.53,0-5.47,1.29-8.35,4.23v14.21a11.93,11.93,0,0,0,7.58,3.29C1149.27,130.64,1153,126.41,1153,119.36Z"/><path class="cls-1" d="M484.35,510v-1.86l10.82-7.31v2.32l-8.7,5.86v.12l8.7,5.86v2.32Z"/><path class="cls-1" d="M500,511.72c0-4.58,3-7.43,6.38-7.43a6,6,0,0,1,4.23,1.8h.06l-.11-2.58v-5.42H513v20.65h-2l-.2-1.86h-.09a6.77,6.77,0,0,1-4.61,2.21C502.44,519.09,500,516.42,500,511.72ZM510.57,515v-7a5.25,5.25,0,0,0-3.69-1.63c-2.43,0-4.41,2.15-4.41,5.37s1.57,5.37,4.15,5.37A5.35,5.35,0,0,0,510.57,515Z"/><path class="cls-1" d="M524.8,506.59h-6.52v-1.95h8.93v14.1H524.8Zm-.95-6.76a1.92,1.92,0,1,1,1.91,1.85A1.79,1.79,0,0,1,523.85,499.83Z"/><path class="cls-1" d="M534.52,504.64H537l3.25,8c.55,1.42,1.07,2.81,1.57,4.18h.11c.5-1.37,1-2.76,1.54-4.18l3.25-8H549l-5.86,14.1h-2.7Z"/><path class="cls-1" d="M577,506.59h-6.52v-1.95h8.93v14.1H577Zm-1-6.76a1.91,1.91,0,0,1,3.82,0,1.91,1.91,0,0,1-3.82,0Z"/><path class="cls-1" d="M587,511.72c0-4.58,3-7.43,6.38-7.43a6,6,0,0,1,4.23,1.8h.06l-.12-2.58v-5.42H600v20.65h-2l-.2-1.86h-.09a6.77,6.77,0,0,1-4.61,2.21C589.44,519.09,587,516.42,587,511.72ZM597.56,515v-7a5.21,5.21,0,0,0-3.68-1.63c-2.44,0-4.41,2.15-4.41,5.37s1.57,5.37,4.15,5.37A5.32,5.32,0,0,0,597.56,515Z"/><path class="cls-1" d="M605.13,505.16H617.6V507H605.13Zm0,6.21H617.6v1.8H605.13Z"/><path class="cls-1" d="M623,507.22a5.58,5.58,0,0,0,3.05-5l-.58-2.27,1.59,1.95a2.66,2.66,0,0,1-1.79.92,2,2,0,0,1-2.06-2.08,2.12,2.12,0,0,1,2.14-2.27c1.54,0,2.61,1.31,2.61,3.54a7.25,7.25,0,0,1-4.14,6.62Zm6.68,0a5.59,5.59,0,0,0,3-5l-.58-2.27,1.6,1.95a2.68,2.68,0,0,1-1.8.92,2,2,0,0,1-2.06-2.08,2.12,2.12,0,0,1,2.14-2.27c1.54,0,2.62,1.31,2.62,3.54a7.26,7.26,0,0,1-4.15,6.62Z"/><path class="cls-1" d="M639.52,516.88l1.11-1.59a10.05,10.05,0,0,0,6.12,1.91c2.38,0,3.54-1,3.54-2.17s-.56-1.83-4.38-2.61-5.52-2-5.52-4.12c0-2.27,2-4,5.86-4a10.56,10.56,0,0,1,5.69,1.8l-1.16,1.54a8.33,8.33,0,0,0-4.73-1.48c-2.38,0-3.25,1-3.25,2s1.22,1.74,4.12,2.35c4.67,1,5.8,2.18,5.8,4.35s-2.23,4.21-6.26,4.21A12.42,12.42,0,0,1,639.52,516.88Z"/><path class="cls-1" d="M657.91,498.09h2.41V512h.11l7.57-7.4h2.76l-10.44,10.27v3.83h-2.41Zm5.42,13.17,1.46-1.57,6.72,9.05h-2.66Z"/><path class="cls-1" d="M681.4,506.59h-6.52v-1.95h8.93v14.1H681.4Zm-1-6.76a1.92,1.92,0,0,1,3.83,0,1.92,1.92,0,0,1-3.83,0Z"/><path class="cls-1" d="M696.8,514V500h-5v-1.94h7.4v16.1c0,2,1.1,2.9,2.78,2.9a6.47,6.47,0,0,0,2.64-.64l.61,1.8a8.55,8.55,0,0,1-3.77.84C698.45,519.09,696.8,517.35,696.8,514Z"/><path class="cls-1" d="M714.2,514V500h-5v-1.94h7.4v16.1c0,2,1.1,2.9,2.78,2.9a6.47,6.47,0,0,0,2.64-.64l.61,1.8a8.58,8.58,0,0,1-3.77.84C715.85,519.09,714.2,517.35,714.2,514Z"/><path class="cls-1" d="M726.52,516.88l1.11-1.59a10,10,0,0,0,6.12,1.91c2.37,0,3.54-1,3.54-2.17s-.56-1.83-4.38-2.61-5.52-2-5.52-4.12c0-2.27,2-4,5.86-4a10.56,10.56,0,0,1,5.69,1.8l-1.16,1.54a8.33,8.33,0,0,0-4.73-1.48c-2.38,0-3.25,1-3.25,2s1.22,1.74,4.12,2.35c4.67,1,5.8,2.18,5.8,4.35s-2.23,4.21-6.26,4.21A12.4,12.4,0,0,1,726.52,516.88Z"/><path class="cls-1" d="M744.82,507.22a5.58,5.58,0,0,0,3-5l-.58-2.27,1.59,1.95a2.66,2.66,0,0,1-1.8.92,2,2,0,0,1-2.05-2.08,2.12,2.12,0,0,1,2.14-2.27c1.54,0,2.61,1.31,2.61,3.54a7.25,7.25,0,0,1-4.15,6.62Zm6.67,0a5.58,5.58,0,0,0,3-5l-.58-2.27,1.59,1.95a2.66,2.66,0,0,1-1.79.92,2,2,0,0,1-2.06-2.08,2.12,2.12,0,0,1,2.14-2.27c1.54,0,2.61,1.31,2.61,3.54a7.25,7.25,0,0,1-4.14,6.62Z"/><path class="cls-1" d="M762.37,515l8.7-5.86v-.12l-8.7-5.86v-2.32l10.82,7.31V510l-10.82,7.31Z"/><path class="cls-1" d="M520.35,544.84V543l10.82-7.31V538l-8.7,5.86V544l8.7,5.86v2.32Z"/><path class="cls-1" d="M537,539.44h2l.2,1.8h.09a7.46,7.46,0,0,1,4.87-2.15c3.8,0,5.83,2.82,5.83,7.2,0,4.78-3,7.6-6.41,7.6a6.7,6.7,0,0,1-4.21-1.83h0l.11,2.67v4.76H537Zm10.51,6.85c0-3.11-1.16-5.17-4-5.17a6,6,0,0,0-4.12,2.09v7a5.92,5.92,0,0,0,3.74,1.63C545.61,551.86,547.47,549.77,547.47,546.29Z"/><path class="cls-1" d="M554.77,549.83l8.7-5.86v-.12l-8.7-5.86v-2.32L565.59,543v1.86l-10.82,7.31Z"/><path class="cls-1" d="M571.36,534.51h2.46v8h7.89v-8h2.47v19h-2.47v-8.93h-7.89v8.93h-2.46Z"/><path class="cls-1" d="M594,536.57h-6.29v-2.06h15v2.06h-6.29v17H594Z"/><path class="cls-1" d="M606,534.51h2.95l2.67,8.12.93,3.08h.12l.9-3.08,2.69-8.12h3v19h-2.32V544c0-1.86.29-5.11.41-6.74h-.09L616.11,541l-2.73,7.48h-1.74L609,541l-1.1-3.72h-.06c.18,1.63.41,4.88.41,6.74v9.51H606Z"/><path class="cls-1" d="M625.15,534.51h2.41v17H637v2.06H625.15Z"/><path class="cls-1" d="M640.29,551.36l1.19-1.59a7.39,7.39,0,0,0,5.22,2.12c2.58,0,4.67-1.63,4.67-4.21s-1.8-4-4.52-4a6.92,6.92,0,0,0-3.77,1.1l-1.28-.81.61-8.91h10.47v2.09h-8.35l-.5,5.45a8,8,0,0,1,3.43-.75c3.53,0,6.35,1.8,6.35,5.8s-3.31,6.27-6.85,6.27A9.29,9.29,0,0,1,640.29,551.36Z"/><path class="cls-1" d="M659.55,544.84V543l10.82-7.31V538l-8.71,5.86V544l8.71,5.86v2.32Z"/><path class="cls-1" d="M685.85,532.94H688l-9.52,25.24h-2.14Z"/><path class="cls-1" d="M693.56,539.44h2l.2,1.8h.09a7.46,7.46,0,0,1,4.87-2.15c3.8,0,5.83,2.82,5.83,7.2,0,4.78-3,7.6-6.41,7.6a6.7,6.7,0,0,1-4.21-1.83h0l.11,2.67v4.76h-2.41Zm10.5,6.85c0-3.11-1.16-5.17-4-5.17a6,6,0,0,0-4.12,2.09v7a5.92,5.92,0,0,0,3.74,1.63C702.21,551.86,704.06,549.77,704.06,546.29Z"/><path class="cls-1" d="M711.37,549.83l8.7-5.86v-.12l-8.7-5.86v-2.32L722.19,543v1.86l-10.82,7.31Z"/><path class="cls-1" d="M520.35,579.64v-1.86l10.82-7.31v2.32l-8.7,5.86v.12l8.7,5.86V587Z"/><path class="cls-1" d="M537,574.24h2l.2,1.8h.09a7.46,7.46,0,0,1,4.87-2.15c3.8,0,5.83,2.82,5.83,7.2,0,4.78-3,7.6-6.41,7.6a6.7,6.7,0,0,1-4.21-1.83h0l.11,2.67v4.76H537Zm10.51,6.85c0-3.11-1.16-5.17-4-5.17a6,6,0,0,0-4.12,2.09v7a5.92,5.92,0,0,0,3.74,1.63C545.61,586.66,547.47,584.57,547.47,581.09Z"/><path class="cls-1" d="M554.77,584.63l8.7-5.86v-.12l-8.7-5.86v-2.32l10.82,7.31v1.86L554.77,587Z"/><path class="cls-1" d="M571,578.83c0-6.12,3.57-9.87,8.53-9.87a7.12,7.12,0,0,1,5.22,2.32l-1.39,1.54a5.12,5.12,0,0,0-3.83-1.71c-3.63,0-6,2.93-6,7.66s2.37,7.77,6,7.77a5.45,5.45,0,0,0,4.26-2.09l1.4,1.48a7.37,7.37,0,0,1-5.89,2.76C574.55,588.69,571,585,571,578.83Z"/><path class="cls-1" d="M588.41,585.87l1.45-1.68a8,8,0,0,0,5.57,2.35c2.61,0,4.12-1.25,4.12-3,0-2-1.48-2.61-3.39-3.42l-2.76-1.22c-1.89-.75-4.09-2.09-4.09-4.9s2.61-5,6.24-5a8.34,8.34,0,0,1,5.86,2.35l-1.28,1.57a6.71,6.71,0,0,0-4.67-1.77c-2.21,0-3.69,1-3.69,2.76s1.77,2.49,3.4,3.13l2.67,1.19c2.35.93,4.2,2.26,4.2,5.07,0,3-2.55,5.43-6.73,5.43A9.68,9.68,0,0,1,588.41,585.87Z"/><path class="cls-1" d="M605.81,585.87l1.45-1.68a8,8,0,0,0,5.57,2.35c2.61,0,4.12-1.25,4.12-3,0-2-1.48-2.61-3.39-3.42l-2.76-1.22c-1.89-.75-4.09-2.09-4.09-4.9s2.61-5,6.24-5a8.34,8.34,0,0,1,5.86,2.35l-1.28,1.57a6.71,6.71,0,0,0-4.67-1.77c-2.21,0-3.69,1-3.69,2.76s1.77,2.49,3.4,3.13l2.67,1.19c2.35.93,4.2,2.26,4.2,5.07,0,3-2.55,5.43-6.73,5.43A9.68,9.68,0,0,1,605.81,585.87Z"/><path class="cls-1" d="M633.65,567.74h2.15L626.28,593h-2.14Z"/><path class="cls-1" d="M640.61,585.87l1.45-1.68a8,8,0,0,0,5.57,2.35c2.61,0,4.12-1.25,4.12-3,0-2-1.48-2.61-3.4-3.42l-2.75-1.22c-1.89-.75-4.09-2.09-4.09-4.9s2.61-5,6.24-5a8.3,8.3,0,0,1,5.85,2.35l-1.27,1.57a6.71,6.71,0,0,0-4.67-1.77c-2.21,0-3.69,1-3.69,2.76s1.77,2.49,3.4,3.13l2.67,1.19c2.35.93,4.2,2.26,4.2,5.07,0,3-2.55,5.43-6.73,5.43A9.68,9.68,0,0,1,640.61,585.87Z"/><path class="cls-1" d="M663.38,569.31h2.78l6.41,19H670l-3.28-10.62c-.66-2.11-1.3-4.2-1.88-6.41h-.12c-.61,2.21-1.22,4.3-1.88,6.41l-3.34,10.62H657Zm-3,11.28h8.73v2h-8.73Z"/><path class="cls-1" d="M675.41,585.87l1.45-1.68a8,8,0,0,0,5.57,2.35c2.61,0,4.12-1.25,4.12-3,0-2-1.48-2.61-3.4-3.42l-2.75-1.22c-1.89-.75-4.09-2.09-4.09-4.9s2.61-5,6.24-5a8.3,8.3,0,0,1,5.85,2.35l-1.27,1.57a6.71,6.71,0,0,0-4.67-1.77c-2.21,0-3.69,1-3.69,2.76s1.77,2.49,3.4,3.13l2.67,1.19c2.35.93,4.2,2.26,4.2,5.07,0,3-2.55,5.43-6.73,5.43A9.68,9.68,0,0,1,675.41,585.87Z"/><path class="cls-1" d="M692.81,585.87l1.45-1.68a8,8,0,0,0,5.57,2.35c2.61,0,4.12-1.25,4.12-3,0-2-1.48-2.61-3.4-3.42l-2.75-1.22c-1.89-.75-4.09-2.09-4.09-4.9s2.61-5,6.24-5a8.3,8.3,0,0,1,5.85,2.35l-1.27,1.57a6.71,6.71,0,0,0-4.67-1.77c-2.21,0-3.69,1-3.69,2.76s1.77,2.49,3.4,3.13l2.67,1.19c2.35.93,4.2,2.26,4.2,5.07,0,3-2.55,5.43-6.73,5.43A9.68,9.68,0,0,1,692.81,585.87Z"/><path class="cls-1" d="M711.75,579.64v-1.86l10.82-7.31v2.32l-8.7,5.86v.12l8.7,5.86V587Z"/><path class="cls-1" d="M738.05,567.74h2.15L730.68,593h-2.14Z"/><path class="cls-1" d="M745.76,574.24h2l.2,1.8H748a7.46,7.46,0,0,1,4.87-2.15c3.8,0,5.83,2.82,5.83,7.2,0,4.78-3,7.6-6.41,7.6a6.7,6.7,0,0,1-4.21-1.83h-.06l.12,2.67v4.76h-2.41Zm10.5,6.85c0-3.11-1.16-5.17-4-5.17a6,6,0,0,0-4.12,2.09v7a5.92,5.92,0,0,0,3.74,1.63C754.41,586.66,756.26,584.57,756.26,581.09Z"/><path class="cls-1" d="M763.57,584.63l8.7-5.86v-.12l-8.7-5.86v-2.32l10.82,7.31v1.86L763.57,587Z"/><path class="cls-1" d="M520.35,614.44v-1.86l10.82-7.31v2.32l-8.7,5.86v.12l8.7,5.86v2.32Z"/><path class="cls-1" d="M537,609h2l.2,1.8h.09a7.46,7.46,0,0,1,4.87-2.15c3.8,0,5.83,2.82,5.83,7.2,0,4.78-3,7.6-6.41,7.6a6.7,6.7,0,0,1-4.21-1.83h0l.11,2.67v4.76H537Zm10.51,6.85c0-3.11-1.16-5.17-4-5.17a6,6,0,0,0-4.12,2.09v7a5.92,5.92,0,0,0,3.74,1.63C545.61,621.46,547.47,619.37,547.47,615.89Z"/><path class="cls-1" d="M571.39,616.12c0-4.73,3.59-7.43,7.86-7.43a7.16,7.16,0,0,1,5.13,2.06l-1.19,1.54a5.79,5.79,0,0,0-3.85-1.59,5.18,5.18,0,0,0-5.49,5.42,5.12,5.12,0,0,0,5.43,5.37,6.73,6.73,0,0,0,4.35-1.77l1.07,1.56a8.35,8.35,0,0,1-5.6,2.21C574.69,623.49,571.39,620.79,571.39,616.12Z"/><path class="cls-1" d="M593.6,618.41v-14h-5v-1.94H596v16.09c0,2,1.1,2.91,2.78,2.91a6.4,6.4,0,0,0,2.64-.64l.61,1.8a8.55,8.55,0,0,1-3.77.84C595.26,623.49,593.6,621.75,593.6,618.41Z"/><path class="cls-1" d="M606.19,619.48c0-3.16,3-4.69,10.24-5.27-.09-1.92-1-3.54-3.75-3.54a9.88,9.88,0,0,0-4.93,1.68l-1-1.63a12.43,12.43,0,0,1,6.29-2c3.86,0,5.74,2.3,5.74,5.81v8.64h-2l-.2-1.92h-.09a9.44,9.44,0,0,1-5.54,2.27C608.36,623.49,606.19,622,606.19,619.48Zm10.24,0V615.8c-6,.46-7.86,1.65-7.86,3.51,0,1.6,1.45,2.23,3.07,2.23A7.71,7.71,0,0,0,616.43,619.46Z"/><path class="cls-1" d="M623.33,621.28l1.1-1.59a10.05,10.05,0,0,0,6.12,1.91c2.38,0,3.54-1,3.54-2.17s-.55-1.83-4.38-2.61-5.51-2-5.51-4.12c0-2.27,2-4,5.86-4a10.64,10.64,0,0,1,5.68,1.8L634.58,612a8.3,8.3,0,0,0-4.73-1.48c-2.38,0-3.25,1-3.25,2s1.22,1.74,4.12,2.35c4.67,1,5.8,2.18,5.8,4.35s-2.23,4.21-6.26,4.21A12.36,12.36,0,0,1,623.33,621.28Z"/><path class="cls-1" d="M640.73,621.28l1.1-1.59A10.05,10.05,0,0,0,648,621.6c2.38,0,3.54-1,3.54-2.17s-.55-1.83-4.38-2.61-5.51-2-5.51-4.12c0-2.27,2-4,5.86-4a10.64,10.64,0,0,1,5.68,1.8L652,612a8.3,8.3,0,0,0-4.73-1.48c-2.38,0-3.25,1-3.25,2s1.22,1.74,4.12,2.35c4.67,1,5.8,2.18,5.8,4.35s-2.23,4.21-6.26,4.21A12.36,12.36,0,0,1,640.73,621.28Z"/><path class="cls-1" d="M658.44,604.11h2.67l6.1,11.95,1.82,4h.06c-.09-1.89-.32-4-.32-6v-9.86h2.32v19h-2.67l-6.09-11.95-1.83-4h0c.08,2,.32,4,.32,6v9.95h-2.33Z"/><path class="cls-1" d="M675.79,619.48c0-3.16,3-4.69,10.24-5.27-.09-1.92-1-3.54-3.75-3.54a9.88,9.88,0,0,0-4.93,1.68l-1-1.63a12.43,12.43,0,0,1,6.29-2c3.86,0,5.74,2.3,5.74,5.81v8.64h-2l-.2-1.92h-.09a9.49,9.49,0,0,1-5.54,2.27C678,623.49,675.79,622,675.79,619.48Zm10.24,0V615.8c-6,.46-7.86,1.65-7.86,3.51,0,1.6,1.45,2.23,3.07,2.23A7.71,7.71,0,0,0,686,619.46Z"/><path class="cls-1" d="M692.55,609h1.91l.21,1.86h.05a3.51,3.51,0,0,1,3.22-2.21c1.4,0,2.27.82,2.67,2.44.81-1.51,1.68-2.44,3.31-2.44,2,0,3.13,1.54,3.13,4.35v10.1h-2.38v-9.92c0-1.63-.46-2.47-1.5-2.47s-1.51.73-2.27,2.18v10.21h-2.2v-9.92c0-1.63-.41-2.47-1.45-2.47s-1.63.73-2.32,2.18v10.21h-2.38Z"/><path class="cls-1" d="M710.24,616.06a7.09,7.09,0,0,1,7.19-7.37c4.06,0,6.44,2.64,6.44,6.62a11.17,11.17,0,0,1-.11,1.45H711.83V614.9h10.5l-.6.67c0-3.34-1.66-5-4.24-5s-4.87,2-4.87,5.48c0,3.66,2.38,5.51,5.51,5.51a7.68,7.68,0,0,0,4.29-1.33l.87,1.56a9.64,9.64,0,0,1-5.45,1.69C713.6,623.49,710.24,620.76,710.24,616.06Z"/><path class="cls-1" d="M728.13,609.56H740.6v1.8H728.13Zm0,6.21H740.6v1.8H728.13Z"/><path class="cls-1" d="M746,611.62a5.58,5.58,0,0,0,3.05-5l-.58-2.27,1.59,1.95a2.66,2.66,0,0,1-1.79.92,2,2,0,0,1-2.06-2.08,2.12,2.12,0,0,1,2.14-2.27c1.54,0,2.61,1.31,2.61,3.54a7.25,7.25,0,0,1-4.14,6.62Zm6.68,0a5.59,5.59,0,0,0,3-5l-.58-2.27,1.6,1.95a2.68,2.68,0,0,1-1.8.92,2,2,0,0,1-2.06-2.08,2.12,2.12,0,0,1,2.14-2.27c1.54,0,2.62,1.31,2.62,3.54a7.26,7.26,0,0,1-4.15,6.62Z"/><path class="cls-1" d="M762.06,628.48l.78-1.8a7.59,7.59,0,0,0,3.22.78c2.79,0,3.54-1.42,3.54-3.8V611h-6.53v-2H772v14.45c0,3.45-1.36,5.94-5.92,5.94A9.38,9.38,0,0,1,762.06,628.48Zm6.58-24.25a1.92,1.92,0,0,1,3.83,0,1.92,1.92,0,0,1-3.83,0Z"/><path class="cls-1" d="M779.92,621.28l1.11-1.59a10,10,0,0,0,6.12,1.91c2.38,0,3.54-1,3.54-2.17s-.56-1.83-4.38-2.61-5.52-2-5.52-4.12c0-2.27,2-4,5.86-4a10.64,10.64,0,0,1,5.69,1.8L791.18,612a8.33,8.33,0,0,0-4.73-1.48c-2.38,0-3.25,1-3.25,2s1.22,1.74,4.12,2.35c4.67,1,5.8,2.18,5.8,4.35s-2.23,4.21-6.26,4.21A12.4,12.4,0,0,1,779.92,621.28Z"/><path class="cls-1" d="M798.22,611.62a5.58,5.58,0,0,0,3-5l-.58-2.27,1.59,1.95a2.66,2.66,0,0,1-1.8.92,2,2,0,0,1-2.06-2.08,2.12,2.12,0,0,1,2.15-2.27c1.54,0,2.61,1.31,2.61,3.54A7.26,7.26,0,0,1,799,613Zm6.67,0a5.58,5.58,0,0,0,3.05-5l-.58-2.27,1.59,1.95a2.66,2.66,0,0,1-1.79.92,2,2,0,0,1-2.06-2.08,2.12,2.12,0,0,1,2.14-2.27c1.54,0,2.61,1.31,2.61,3.54a7.25,7.25,0,0,1-4.14,6.62Z"/><path class="cls-1" d="M815.77,619.43l8.7-5.86v-.12l-8.7-5.86v-2.32l10.82,7.31v1.86l-10.82,7.31Z"/><path class="cls-1" d="M520.35,649.24v-1.86l10.82-7.31v2.32l-8.7,5.86v.12l8.7,5.86v2.32Z"/><path class="cls-1" d="M536.33,656.08l1.1-1.59a10.05,10.05,0,0,0,6.12,1.91c2.38,0,3.54-1,3.54-2.17s-.55-1.83-4.38-2.61-5.51-2-5.51-4.12c0-2.27,2-4,5.86-4a10.55,10.55,0,0,1,5.68,1.8l-1.16,1.54a8.3,8.3,0,0,0-4.73-1.48c-2.38,0-3.25,1-3.25,2s1.22,1.74,4.12,2.35c4.67,1,5.8,2.18,5.8,4.35s-2.23,4.21-6.26,4.21A12.36,12.36,0,0,1,536.33,656.08Z"/><path class="cls-1" d="M554.36,643.84h2l.2,1.8h.09a7.46,7.46,0,0,1,4.87-2.15c3.8,0,5.83,2.82,5.83,7.2,0,4.78-3,7.6-6.41,7.6a6.7,6.7,0,0,1-4.21-1.83h-.05l.11,2.67v4.76h-2.41Zm10.51,6.85c0-3.11-1.16-5.17-4-5.17a6,6,0,0,0-4.12,2.09v7a5.92,5.92,0,0,0,3.74,1.63C563,656.26,564.87,654.17,564.87,650.69Z"/><path class="cls-1" d="M571.39,654.29c0-3.17,3-4.7,10.24-5.28-.09-1.92-1-3.54-3.75-3.54a9.88,9.88,0,0,0-4.93,1.68l-1-1.63a12.43,12.43,0,0,1,6.29-2c3.86,0,5.74,2.3,5.74,5.8v8.65h-2l-.2-1.91h-.09a9.49,9.49,0,0,1-5.54,2.26C573.56,658.29,571.39,656.81,571.39,654.29Zm10.24,0V650.6c-6,.46-7.86,1.65-7.86,3.51,0,1.6,1.45,2.23,3.07,2.23A7.71,7.71,0,0,0,581.63,654.26Z"/><path class="cls-1" d="M589.16,643.84h2l.2,2.38h.12c1.48-1.54,3.1-2.73,5.3-2.73,3.34,0,4.88,2,4.88,5.69v8.76h-2.41V649.5c0-2.67-.93-3.92-3.22-3.92-1.68,0-2.81.84-4.44,2.53v9.83h-2.41Z"/><path class="cls-1" d="M607,654.23l8.7-5.86v-.12l-8.7-5.86v-2.32l10.82,7.31v1.86L607,656.55Z"/><path class="cls-1" d="M624.57,638.91h11.78V641H627v5.95h7.89V649H627v6.9h9.63v2.06H624.57Z"/><path class="cls-1" d="M640.61,655.47l1.45-1.68a8,8,0,0,0,5.57,2.35c2.61,0,4.12-1.25,4.12-3,0-2-1.48-2.61-3.4-3.42l-2.75-1.22c-1.89-.75-4.09-2.09-4.09-4.9s2.61-5.05,6.24-5.05a8.3,8.3,0,0,1,5.85,2.35l-1.27,1.57a6.71,6.71,0,0,0-4.67-1.77c-2.21,0-3.69,1-3.69,2.75s1.77,2.5,3.4,3.14l2.67,1.19c2.35.92,4.2,2.26,4.2,5.07,0,3-2.55,5.43-6.73,5.43A9.64,9.64,0,0,1,640.61,655.47Z"/><path class="cls-1" d="M658.3,649.38c0-7.42,3.71-10.3,7.74-10.3a7.37,7.37,0,0,1,5.17,2l-1.34,1.51a5.44,5.44,0,0,0-3.68-1.48c-3,0-5.63,2.11-5.63,8.29,0,4.56,1.74,7,4.82,7a3.84,3.84,0,0,0,3.88-4.06c0-2.52-1.36-3.91-3.91-3.91A6.49,6.49,0,0,0,660.5,651l-.08-1.89a7.8,7.8,0,0,1,5.36-2.52c3.43,0,5.78,1.91,5.78,5.71a6,6,0,0,1-6.18,5.95C661.35,658.29,658.3,655.33,658.3,649.38Z"/><path class="cls-1" d="M677,649.24v-1.86l10.82-7.31v2.32l-8.71,5.86v.12l8.71,5.86v2.32Z"/><path class="cls-1" d="M703.25,637.34h2.15l-9.52,25.24h-2.14Z"/><path class="cls-1" d="M710.33,656.08l1.1-1.59a10.05,10.05,0,0,0,6.12,1.91c2.38,0,3.54-1,3.54-2.17s-.55-1.83-4.38-2.61-5.51-2-5.51-4.12c0-2.27,2-4,5.86-4a10.55,10.55,0,0,1,5.68,1.8l-1.16,1.54a8.3,8.3,0,0,0-4.73-1.48c-2.38,0-3.25,1-3.25,2s1.22,1.74,4.12,2.35c4.67,1,5.8,2.18,5.8,4.35s-2.23,4.21-6.26,4.21A12.36,12.36,0,0,1,710.33,656.08Z"/><path class="cls-1" d="M728.36,643.84h2l.21,1.8h.08a7.5,7.5,0,0,1,4.88-2.15c3.8,0,5.83,2.82,5.83,7.2,0,4.78-3,7.6-6.41,7.6a6.7,6.7,0,0,1-4.21-1.83h-.06l.12,2.67v4.76h-2.41Zm10.5,6.85c0-3.11-1.16-5.17-4-5.17a6,6,0,0,0-4.12,2.09v7a5.89,5.89,0,0,0,3.74,1.63C737,656.26,738.86,654.17,738.86,650.69Z"/><path class="cls-1" d="M745.39,654.29c0-3.17,3-4.7,10.23-5.28-.08-1.92-1-3.54-3.74-3.54a9.88,9.88,0,0,0-4.93,1.68l-1-1.63a12.4,12.4,0,0,1,6.29-2c3.86,0,5.74,2.3,5.74,5.8v8.65h-2l-.2-1.91h-.09a9.54,9.54,0,0,1-5.54,2.26C747.56,658.29,745.39,656.81,745.39,654.29Zm10.23,0V650.6c-6,.46-7.86,1.65-7.86,3.51,0,1.6,1.45,2.23,3.08,2.23A7.68,7.68,0,0,0,755.62,654.26Z"/><path class="cls-1" d="M763.16,643.84h2l.21,2.38h.11c1.48-1.54,3.11-2.73,5.31-2.73,3.34,0,4.87,2,4.87,5.69v8.76h-2.4V649.5c0-2.67-.93-3.92-3.22-3.92-1.68,0-2.82.84-4.44,2.53v9.83h-2.41Z"/><path class="cls-1" d="M781,654.23l8.7-5.86v-.12l-8.7-5.86v-2.32l10.82,7.31v1.86L781,656.55Z"/><path class="cls-1" d="M520.35,684v-1.86l10.82-7.31v2.32l-8.7,5.86v.12l8.7,5.86v2.32Z"/><path class="cls-1" d="M536.33,690.88l1.1-1.59a10.05,10.05,0,0,0,6.12,1.91c2.38,0,3.54-1,3.54-2.17s-.55-1.83-4.38-2.61-5.51-2-5.51-4.12c0-2.27,2-4,5.86-4a10.55,10.55,0,0,1,5.68,1.8l-1.16,1.54a8.3,8.3,0,0,0-4.73-1.48c-2.38,0-3.25,1-3.25,2,0,1.22,1.22,1.74,4.12,2.35,4.67,1,5.8,2.18,5.8,4.35s-2.23,4.21-6.26,4.21A12.36,12.36,0,0,1,536.33,690.88Z"/><path class="cls-1" d="M554.36,678.64h2l.2,1.8h.09a7.46,7.46,0,0,1,4.87-2.15c3.8,0,5.83,2.82,5.83,7.2,0,4.78-3,7.6-6.41,7.6a6.7,6.7,0,0,1-4.21-1.83h-.05l.11,2.67v4.76h-2.41Zm10.51,6.85c0-3.11-1.16-5.17-4-5.17a6,6,0,0,0-4.12,2.09v7a5.92,5.92,0,0,0,3.74,1.63C563,691.06,564.87,689,564.87,685.49Z"/><path class="cls-1" d="M571.39,689.08c0-3.16,3-4.7,10.24-5.28-.09-1.91-1-3.53-3.75-3.53A9.88,9.88,0,0,0,573,682l-1-1.63a12.43,12.43,0,0,1,6.29-2c3.86,0,5.74,2.3,5.74,5.81v8.64h-2l-.2-1.92h-.09a9.44,9.44,0,0,1-5.54,2.27C573.56,693.09,571.39,691.61,571.39,689.08Zm10.24,0V685.4c-6,.47-7.86,1.65-7.86,3.51,0,1.6,1.45,2.23,3.07,2.23A7.67,7.67,0,0,0,581.63,689.05Z"/><path class="cls-1" d="M589.16,678.64h2l.2,2.38h.12c1.48-1.54,3.1-2.73,5.3-2.73,3.34,0,4.88,2,4.88,5.69v8.76h-2.41V684.3c0-2.67-.93-3.92-3.22-3.92-1.68,0-2.81.84-4.44,2.53v9.83h-2.41Z"/><path class="cls-1" d="M607,689l8.7-5.86v-.12l-8.7-5.86v-2.32l10.82,7.31V684L607,691.35Z"/><path class="cls-1" d="M624.14,673.71h5.94c3.86,0,6.68,1.39,6.68,5.37,0,3.8-2.82,5.62-6.68,5.62H626.6v8h-2.46Zm5.6,9c3,0,4.58-1.22,4.58-3.65s-1.62-3.4-4.58-3.4H626.6v7.05Zm1.77,0,5.8,10h-2.76l-5-8.7Z"/><path class="cls-1" d="M640.64,685.66a7.09,7.09,0,0,1,7.19-7.37c4.06,0,6.44,2.64,6.44,6.62a11.17,11.17,0,0,1-.11,1.45H642.23V684.5h10.5l-.6.67c0-3.34-1.66-5-4.24-5s-4.87,2-4.87,5.48c0,3.66,2.38,5.51,5.51,5.51a7.68,7.68,0,0,0,4.29-1.33l.87,1.56a9.64,9.64,0,0,1-5.45,1.69C644,693.09,640.64,690.36,640.64,685.66Z"/><path class="cls-1" d="M658.39,689.08c0-3.16,3-4.7,10.24-5.28-.09-1.91-1-3.53-3.75-3.53A9.88,9.88,0,0,0,660,682l-1-1.63a12.43,12.43,0,0,1,6.29-2c3.86,0,5.74,2.3,5.74,5.81v8.64h-2l-.2-1.92h-.09a9.46,9.46,0,0,1-5.54,2.27C660.56,693.09,658.39,691.61,658.39,689.08Zm10.24,0V685.4c-6,.47-7.86,1.65-7.86,3.51,0,1.6,1.45,2.23,3.07,2.23A7.67,7.67,0,0,0,668.63,689.05Z"/><path class="cls-1" d="M675.79,685.72c0-4.73,3.59-7.43,7.86-7.43a7.16,7.16,0,0,1,5.13,2.06l-1.19,1.54a5.81,5.81,0,0,0-3.86-1.6,5.18,5.18,0,0,0-5.48,5.43,5.12,5.12,0,0,0,5.43,5.37,6.73,6.73,0,0,0,4.35-1.77l1.07,1.56a8.37,8.37,0,0,1-5.6,2.21C679.09,693.09,675.79,690.39,675.79,685.72Z"/><path class="cls-1" d="M696.84,687.26v-6.67h-4v-1.8l4.09-.15.32-4.52h2v4.52h6.9v2h-6.9v6.7c0,2.52.84,3.83,3.57,3.83a9.39,9.39,0,0,0,3.36-.64l.52,1.77a12.36,12.36,0,0,1-4.41.84C698.18,693.09,696.84,690.74,696.84,687.26Z"/><path class="cls-1" d="M711.75,684v-1.86l10.82-7.31v2.32l-8.7,5.86v.12l8.7,5.86v2.32Z"/><path class="cls-1" d="M738.05,672.14h2.15l-9.52,25.24h-2.14Z"/><path class="cls-1" d="M745.12,690.88l1.11-1.59a10.05,10.05,0,0,0,6.12,1.91c2.38,0,3.54-1,3.54-2.17s-.56-1.83-4.38-2.61-5.51-2-5.51-4.12c0-2.27,2-4,5.85-4a10.56,10.56,0,0,1,5.69,1.8l-1.16,1.54a8.33,8.33,0,0,0-4.73-1.48c-2.38,0-3.25,1-3.25,2,0,1.22,1.22,1.74,4.12,2.35,4.67,1,5.8,2.18,5.8,4.35s-2.23,4.21-6.26,4.21A12.42,12.42,0,0,1,745.12,690.88Z"/><path class="cls-1" d="M763.16,678.64h2l.21,1.8h.08a7.5,7.5,0,0,1,4.88-2.15c3.8,0,5.83,2.82,5.83,7.2,0,4.78-3,7.6-6.41,7.6a6.7,6.7,0,0,1-4.21-1.83h-.06l.12,2.67v4.76h-2.41Zm10.5,6.85c0-3.11-1.16-5.17-4-5.17a6,6,0,0,0-4.12,2.09v7a5.87,5.87,0,0,0,3.74,1.63C771.81,691.06,773.66,689,773.66,685.49Z"/><path class="cls-1" d="M780.18,689.08c0-3.16,3-4.7,10.24-5.28-.08-1.91-1-3.53-3.74-3.53a9.84,9.84,0,0,0-4.93,1.68l-1-1.63a12.44,12.44,0,0,1,6.3-2c3.86,0,5.74,2.3,5.74,5.81v8.64h-2l-.2-1.92h-.09a9.49,9.49,0,0,1-5.54,2.27C782.36,693.09,780.18,691.61,780.18,689.08Zm10.24,0V685.4c-6,.47-7.86,1.65-7.86,3.51,0,1.6,1.45,2.23,3.08,2.23A7.64,7.64,0,0,0,790.42,689.05Z"/><path class="cls-1" d="M798,678.64h2l.21,2.38h.11c1.48-1.54,3.11-2.73,5.31-2.73,3.34,0,4.87,2,4.87,5.69v8.76H808V684.3c0-2.67-.93-3.92-3.22-3.92-1.69,0-2.82.84-4.44,2.53v9.83H798Z"/><path class="cls-1" d="M815.77,689l8.7-5.86v-.12l-8.7-5.86v-2.32l10.82,7.31V684l-10.82,7.31Z"/><path class="cls-1" d="M520.35,718.84V717l10.82-7.31V712l-8.7,5.86V718l8.7,5.86v2.32Z"/><path class="cls-1" d="M536.33,725.68l1.1-1.59a10.05,10.05,0,0,0,6.12,1.91c2.38,0,3.54-1,3.54-2.17s-.55-1.83-4.38-2.62-5.51-2-5.51-4.11c0-2.27,2-4,5.86-4a10.55,10.55,0,0,1,5.68,1.8l-1.16,1.54a8.3,8.3,0,0,0-4.73-1.48c-2.38,0-3.25,1-3.25,2s1.22,1.74,4.12,2.35c4.67,1,5.8,2.18,5.8,4.35s-2.23,4.21-6.26,4.21A12.36,12.36,0,0,1,536.33,725.68Z"/><path class="cls-1" d="M554.36,713.44h2l.2,1.8h.09a7.46,7.46,0,0,1,4.87-2.15c3.8,0,5.83,2.82,5.83,7.2,0,4.78-3,7.6-6.41,7.6a6.7,6.7,0,0,1-4.21-1.83h-.05l.11,2.67v4.76h-2.41Zm10.51,6.85c0-3.11-1.16-5.17-4-5.17a6,6,0,0,0-4.12,2.09v7a5.92,5.92,0,0,0,3.74,1.63C563,725.86,564.87,723.77,564.87,720.29Z"/><path class="cls-1" d="M571.39,723.88c0-3.16,3-4.69,10.24-5.27-.09-1.92-1-3.54-3.75-3.54a9.88,9.88,0,0,0-4.93,1.68l-1-1.63a12.43,12.43,0,0,1,6.29-2c3.86,0,5.74,2.29,5.74,5.8v8.65h-2l-.2-1.92h-.09a9.44,9.44,0,0,1-5.54,2.27C573.56,727.89,571.39,726.41,571.39,723.88Zm10.24,0V720.2c-6,.46-7.86,1.65-7.86,3.51,0,1.6,1.45,2.23,3.07,2.23A7.71,7.71,0,0,0,581.63,723.86Z"/><path class="cls-1" d="M589.16,713.44h2l.2,2.38h.12c1.48-1.54,3.1-2.73,5.3-2.73,3.34,0,4.88,2,4.88,5.69v8.76h-2.41V719.1c0-2.67-.93-3.92-3.22-3.92-1.68,0-2.81.84-4.44,2.53v9.83h-2.41Z"/><path class="cls-1" d="M607,723.83l8.7-5.86v-.12L607,712v-2.32L617.79,717v1.86L607,726.15Z"/><path class="cls-1" d="M628.58,708.51h2.78l6.41,19h-2.61l-3.28-10.62c-.66-2.12-1.3-4.2-1.88-6.41h-.12c-.61,2.21-1.22,4.29-1.88,6.41l-3.34,10.62h-2.49Zm-3,11.28h8.73v2h-8.73Z"/><path class="cls-1" d="M641.62,708.51h5.75c4.2,0,7,1.42,7,5.6,0,4-2.87,5.89-7,5.89h-3.31v7.54h-2.44Zm5.46,9.52c3.31,0,4.9-1.22,4.9-3.92s-1.62-3.63-4.9-3.63h-3V718Z"/><path class="cls-1" d="M658.82,725.48h4.73V710.57h-4.73v-2.06h11.89v2.06H666v14.91h4.72v2.06H658.82Z"/><path class="cls-1" d="M677,718.84V717l10.82-7.31V712l-8.71,5.86V718l8.71,5.86v2.32Z"/><path class="cls-1" d="M703.25,706.94h2.15l-9.52,25.24h-2.14Z"/><path class="cls-1" d="M710.33,725.68l1.1-1.59a10.05,10.05,0,0,0,6.12,1.91c2.38,0,3.54-1,3.54-2.17s-.55-1.83-4.38-2.62-5.51-2-5.51-4.11c0-2.27,2-4,5.86-4a10.55,10.55,0,0,1,5.68,1.8l-1.16,1.54a8.3,8.3,0,0,0-4.73-1.48c-2.38,0-3.25,1-3.25,2s1.22,1.74,4.12,2.35c4.67,1,5.8,2.18,5.8,4.35s-2.23,4.21-6.26,4.21A12.36,12.36,0,0,1,710.33,725.68Z"/><path class="cls-1" d="M728.36,713.44h2l.21,1.8h.08a7.5,7.5,0,0,1,4.88-2.15c3.8,0,5.83,2.82,5.83,7.2,0,4.78-3,7.6-6.41,7.6a6.7,6.7,0,0,1-4.21-1.83h-.06l.12,2.67v4.76h-2.41Zm10.5,6.85c0-3.11-1.16-5.17-4-5.17a6,6,0,0,0-4.12,2.09v7a5.89,5.89,0,0,0,3.74,1.63C737,725.86,738.86,723.77,738.86,720.29Z"/><path class="cls-1" d="M745.39,723.88c0-3.16,3-4.69,10.23-5.27-.08-1.92-1-3.54-3.74-3.54a9.88,9.88,0,0,0-4.93,1.68l-1-1.63a12.4,12.4,0,0,1,6.29-2c3.86,0,5.74,2.29,5.74,5.8v8.65h-2l-.2-1.92h-.09a9.49,9.49,0,0,1-5.54,2.27C747.56,727.89,745.39,726.41,745.39,723.88Zm10.23,0V720.2c-6,.46-7.86,1.65-7.86,3.51,0,1.6,1.45,2.23,3.08,2.23A7.68,7.68,0,0,0,755.62,723.86Z"/><path class="cls-1" d="M763.16,713.44h2l.21,2.38h.11c1.48-1.54,3.11-2.73,5.31-2.73,3.34,0,4.87,2,4.87,5.69v8.76h-2.4V719.1c0-2.67-.93-3.92-3.22-3.92-1.68,0-2.82.84-4.44,2.53v9.83h-2.41Z"/><path class="cls-1" d="M781,723.83l8.7-5.86v-.12L781,712v-2.32L791.79,717v1.86L781,726.15Z"/><path class="cls-1" d="M520.35,753.64v-1.86l10.82-7.31v2.32l-8.7,5.86v.12l8.7,5.86V761Z"/><path class="cls-1" d="M536.33,760.48l1.1-1.59a10.05,10.05,0,0,0,6.12,1.91c2.38,0,3.54-1,3.54-2.17s-.55-1.83-4.38-2.61-5.51-2-5.51-4.12c0-2.27,2-4,5.86-4a10.55,10.55,0,0,1,5.68,1.8l-1.16,1.54a8.3,8.3,0,0,0-4.73-1.48c-2.38,0-3.25,1-3.25,2,0,1.22,1.22,1.74,4.12,2.35,4.67,1,5.8,2.18,5.8,4.35s-2.23,4.21-6.26,4.21A12.36,12.36,0,0,1,536.33,760.48Z"/><path class="cls-1" d="M554.36,748.24h2l.2,1.8h.09a7.46,7.46,0,0,1,4.87-2.15c3.8,0,5.83,2.82,5.83,7.2,0,4.78-3,7.6-6.41,7.6a6.7,6.7,0,0,1-4.21-1.83h-.05l.11,2.67v4.76h-2.41Zm10.51,6.85c0-3.11-1.16-5.17-4-5.17a6,6,0,0,0-4.12,2.09v7a5.92,5.92,0,0,0,3.74,1.63C563,760.66,564.87,758.57,564.87,755.09Z"/><path class="cls-1" d="M571.39,758.68c0-3.16,3-4.69,10.24-5.27-.09-1.92-1-3.54-3.75-3.54a9.88,9.88,0,0,0-4.93,1.68l-1-1.63a12.43,12.43,0,0,1,6.29-2c3.86,0,5.74,2.3,5.74,5.81v8.64h-2l-.2-1.92h-.09a9.44,9.44,0,0,1-5.54,2.27C573.56,762.69,571.39,761.21,571.39,758.68Zm10.24,0V755c-6,.46-7.86,1.65-7.86,3.51,0,1.6,1.45,2.23,3.07,2.23A7.71,7.71,0,0,0,581.63,758.66Z"/><path class="cls-1" d="M589.16,748.24h2l.2,2.38h.12c1.48-1.54,3.1-2.73,5.3-2.73,3.34,0,4.88,2,4.88,5.69v8.76h-2.41V753.9c0-2.67-.93-3.92-3.22-3.92-1.68,0-2.81.84-4.44,2.53v9.83h-2.41Z"/><path class="cls-1" d="M607,758.63l8.7-5.86v-.12l-8.7-5.86v-2.32l10.82,7.31v1.86L607,761Z"/><path class="cls-1" d="M623.65,743.31h2.66l6.1,12,1.82,4h.06c-.09-1.89-.32-4-.32-6v-9.86h2.32v19h-2.67l-6.09-12-1.83-3.95h-.05c.08,1.95.32,4,.32,5.95v10h-2.32Z"/><path class="cls-1" d="M640.41,755.32c0-4.73,3.25-7.43,7-7.43s7,2.7,7,7.43-3.25,7.37-7,7.37S640.41,760,640.41,755.32Zm11.45,0c0-3.25-1.79-5.42-4.49-5.42s-4.5,2.17-4.5,5.42,1.8,5.37,4.5,5.37S651.86,758.54,651.86,755.32Z"/><path class="cls-1" d="M657.81,755.32c0-4.58,3-7.43,6.38-7.43a6,6,0,0,1,4.23,1.8h.06l-.11-2.58v-5.42h2.4v20.65h-2l-.2-1.86h-.09a6.77,6.77,0,0,1-4.61,2.21C660.24,762.69,657.81,760,657.81,755.32Zm10.56,3.25v-7a5.25,5.25,0,0,0-3.69-1.63c-2.43,0-4.41,2.15-4.41,5.37,0,3.37,1.57,5.37,4.15,5.37A5.35,5.35,0,0,0,668.37,758.57Z"/><path class="cls-1" d="M675.44,755.26a7.09,7.09,0,0,1,7.19-7.37c4.06,0,6.44,2.64,6.44,6.62A11.17,11.17,0,0,1,689,756H677V754.1h10.5l-.6.67c0-3.34-1.66-5-4.24-5s-4.87,2-4.87,5.48,2.38,5.51,5.51,5.51a7.68,7.68,0,0,0,4.29-1.33l.87,1.56a9.64,9.64,0,0,1-5.45,1.69C678.8,762.69,675.44,760,675.44,755.26Z"/><path class="cls-1" d="M697.22,760.22a2.35,2.35,0,1,1,2.35,2.47A2.34,2.34,0,0,1,697.22,760.22Z"/><path class="cls-1" d="M709.86,767.68l.79-1.8a7.52,7.52,0,0,0,3.22.78c2.78,0,3.53-1.42,3.53-3.8V750.19h-6.52v-2h8.93v14.45c0,3.45-1.36,5.94-5.92,5.94A9.42,9.42,0,0,1,709.86,767.68Zm6.59-24.25a1.92,1.92,0,1,1,1.91,1.85A1.79,1.79,0,0,1,716.45,743.43Z"/><path class="cls-1" d="M727.72,760.48l1.11-1.59A10.05,10.05,0,0,0,735,760.8c2.38,0,3.54-1,3.54-2.17s-.56-1.83-4.38-2.61-5.52-2-5.52-4.12c0-2.27,2-4,5.86-4a10.56,10.56,0,0,1,5.69,1.8L739,751.23a8.33,8.33,0,0,0-4.73-1.48c-2.38,0-3.25,1-3.25,2,0,1.22,1.22,1.74,4.12,2.35,4.67,1,5.8,2.18,5.8,4.35s-2.23,4.21-6.26,4.21A12.42,12.42,0,0,1,727.72,760.48Z"/><path class="cls-1" d="M746.55,753.64v-1.86l10.82-7.31v2.32l-8.71,5.86v.12l8.71,5.86V761Z"/><path class="cls-1" d="M772.85,741.74H775L765.48,767h-2.14Z"/><path class="cls-1" d="M779.92,760.48l1.11-1.59a10,10,0,0,0,6.12,1.91c2.38,0,3.54-1,3.54-2.17s-.56-1.83-4.38-2.61-5.52-2-5.52-4.12c0-2.27,2-4,5.86-4a10.56,10.56,0,0,1,5.69,1.8l-1.16,1.54a8.33,8.33,0,0,0-4.73-1.48c-2.38,0-3.25,1-3.25,2,0,1.22,1.22,1.74,4.12,2.35,4.67,1,5.8,2.18,5.8,4.35s-2.23,4.21-6.26,4.21A12.4,12.4,0,0,1,779.92,760.48Z"/><path class="cls-1" d="M798,748.24h2l.21,1.8h.08a7.48,7.48,0,0,1,4.88-2.15c3.8,0,5.83,2.82,5.83,7.2,0,4.78-3,7.6-6.41,7.6a6.7,6.7,0,0,1-4.21-1.83h-.06l.12,2.67v4.76H798Zm10.5,6.85c0-3.11-1.16-5.17-4-5.17a6,6,0,0,0-4.12,2.09v7a5.87,5.87,0,0,0,3.74,1.63C806.6,760.66,808.46,758.57,808.46,755.09Z"/><path class="cls-1" d="M815,758.68c0-3.16,3-4.69,10.24-5.27-.08-1.92-1-3.54-3.74-3.54a9.84,9.84,0,0,0-4.93,1.68l-1-1.63a12.44,12.44,0,0,1,6.3-2c3.86,0,5.74,2.3,5.74,5.81v8.64h-2l-.2-1.92h-.09a9.49,9.49,0,0,1-5.54,2.27C817.16,762.69,815,761.21,815,758.68Zm10.24,0V755c-6,.46-7.86,1.65-7.86,3.51,0,1.6,1.45,2.23,3.08,2.23A7.68,7.68,0,0,0,825.22,758.66Z"/><path class="cls-1" d="M832.76,748.24h2l.2,2.38h.12c1.48-1.54,3.1-2.73,5.31-2.73,3.33,0,4.87,2,4.87,5.69v8.76h-2.41V753.9c0-2.67-.92-3.92-3.22-3.92-1.68,0-2.81.84-4.43,2.53v9.83h-2.41Z"/><path class="cls-1" d="M850.57,758.63l8.7-5.86v-.12l-8.7-5.86v-2.32l10.82,7.31v1.86L850.57,761Z"/><path class="cls-1" d="M520.35,788.44v-1.86l10.82-7.31v2.32l-8.7,5.86v.12l8.7,5.86v2.32Z"/><path class="cls-1" d="M546.65,776.54h2.15l-9.51,25.24h-2.15Z"/><path class="cls-1" d="M554.36,783h2l.2,1.8h.09a7.46,7.46,0,0,1,4.87-2.15c3.8,0,5.83,2.82,5.83,7.2,0,4.78-3,7.6-6.41,7.6a6.7,6.7,0,0,1-4.21-1.83h-.05l.11,2.67v4.76h-2.41Zm10.51,6.85c0-3.11-1.16-5.17-4-5.17a6,6,0,0,0-4.12,2.09v7a5.92,5.92,0,0,0,3.74,1.63C563,795.46,564.87,793.37,564.87,789.89Z"/><path class="cls-1" d="M572.17,793.43l8.7-5.86v-.12l-8.7-5.86v-2.32L583,786.58v1.86l-10.82,7.31Z"/><path class="cls-1" d="M520.35,823.24v-1.86l10.82-7.31v2.32l-8.7,5.86v.12l8.7,5.86v2.32Z"/><path class="cls-1" d="M537,817.84h2l.2,1.8h.09a7.46,7.46,0,0,1,4.87-2.15c3.8,0,5.83,2.82,5.83,7.2,0,4.78-3,7.6-6.41,7.6a6.7,6.7,0,0,1-4.21-1.83h0l.11,2.67v4.76H537Zm10.51,6.85c0-3.11-1.16-5.17-4-5.17a6,6,0,0,0-4.12,2.09v7a5.92,5.92,0,0,0,3.74,1.63C545.61,830.26,547.47,828.17,547.47,824.69Z"/><path class="cls-1" d="M554.77,828.23l8.7-5.86v-.12l-8.7-5.86v-2.32l10.82,7.31v1.86l-10.82,7.31Z"/><path class="cls-1" d="M570.6,822.43c0-6.15,3.51-9.87,8.45-9.87a7,7,0,0,1,5.25,2.32l-1.4,1.54a4.94,4.94,0,0,0-3.85-1.71c-3.57,0-5.89,2.93-5.89,7.66s2.11,7.77,5.83,7.77a4.8,4.8,0,0,0,3.28-1.1v-5h-3.78v-2h6v8a8,8,0,0,1-5.69,2.21C574.06,832.29,570.6,828.63,570.6,822.43Z"/><path class="cls-1" d="M595.6,819.79h-6.52v-1.95H598v14.1H595.6Zm-1-6.76a1.92,1.92,0,1,1,1.91,1.85A1.79,1.79,0,0,1,594.65,813Z"/><path class="cls-1" d="M609.84,826.46v-6.67h-4V818l4.09-.15.32-4.52h2v4.52h6.9v1.95h-6.9v6.7c0,2.52.84,3.82,3.57,3.82a9.4,9.4,0,0,0,3.36-.63l.52,1.77a12.35,12.35,0,0,1-4.4.84C611.18,832.29,609.84,829.94,609.84,826.46Z"/><path class="cls-1" d="M624.75,823.24v-1.86l10.82-7.31v2.32l-8.71,5.86v.12l8.71,5.86v2.32Z"/><path class="cls-1" d="M651.05,811.34h2.15l-9.52,25.24h-2.14Z"/><path class="cls-1" d="M658.76,817.84h2l.2,1.8H661a7.46,7.46,0,0,1,4.87-2.15c3.8,0,5.83,2.82,5.83,7.2,0,4.78-3,7.6-6.41,7.6a6.7,6.7,0,0,1-4.21-1.83h-.05l.11,2.67v4.76h-2.41Zm10.5,6.85c0-3.11-1.16-5.17-4-5.17a6,6,0,0,0-4.12,2.09v7a5.92,5.92,0,0,0,3.74,1.63C667.41,830.26,669.26,828.17,669.26,824.69Z"/><path class="cls-1" d="M676.57,828.23l8.7-5.86v-.12l-8.7-5.86v-2.32l10.82,7.31v1.86l-10.82,7.31Z"/><path class="cls-1" d="M520.35,858v-1.86l10.82-7.31v2.32l-8.7,5.86v.12l8.7,5.86v2.32Z"/><path class="cls-1" d="M537,852.64h2l.2,1.8h.09a7.46,7.46,0,0,1,4.87-2.15c3.8,0,5.83,2.82,5.83,7.2,0,4.78-3,7.6-6.41,7.6a6.7,6.7,0,0,1-4.21-1.83h0l.11,2.67v4.76H537Zm10.51,6.85c0-3.11-1.16-5.17-4-5.17a6,6,0,0,0-4.12,2.09v7a5.92,5.92,0,0,0,3.74,1.63C545.61,865.06,547.47,863,547.47,859.49Z"/><path class="cls-1" d="M554.77,863l8.7-5.86v-.12l-8.7-5.86v-2.32l10.82,7.31V858l-10.82,7.31Z"/><path class="cls-1" d="M571,864.27l1.45-1.68a8,8,0,0,0,5.57,2.35c2.61,0,4.12-1.25,4.12-3,0-2-1.48-2.61-3.39-3.42L576,857.31c-1.89-.75-4.09-2.09-4.09-4.9s2.61-5,6.24-5a8.34,8.34,0,0,1,5.86,2.35l-1.28,1.57a6.71,6.71,0,0,0-4.67-1.77c-2.21,0-3.68,1-3.68,2.75s1.76,2.5,3.39,3.14l2.67,1.19c2.35.93,4.2,2.26,4.2,5.07,0,3-2.55,5.43-6.73,5.43A9.68,9.68,0,0,1,571,864.27Z"/><path class="cls-1" d="M587.69,847.71h2.61l3,10.27c.67,2.23,1.13,4.06,1.83,6.26h.12c.69-2.2,1.18-4,1.82-6.26l3-10.27h2.49l-6,19h-2.84Z"/><path class="cls-1" d="M605.4,857.22c0-6.14,3.51-9.86,8.45-9.86a7,7,0,0,1,5.25,2.32l-1.4,1.54a4.94,4.94,0,0,0-3.85-1.71c-3.57,0-5.89,2.93-5.89,7.66s2.11,7.77,5.83,7.77a4.71,4.71,0,0,0,3.27-1.1v-5h-3.77v-2h6v8a8,8,0,0,1-5.69,2.21C608.86,867.09,605.4,863.43,605.4,857.22Z"/><path class="cls-1" d="M624.75,858v-1.86l10.82-7.31v2.32l-8.71,5.86v.12l8.71,5.86v2.32Z"/><path class="cls-1" d="M651.05,846.14h2.15l-9.52,25.24h-2.14Z"/><path class="cls-1" d="M658.76,852.64h2l.2,1.8H661a7.46,7.46,0,0,1,4.87-2.15c3.8,0,5.83,2.82,5.83,7.2,0,4.78-3,7.6-6.41,7.6a6.7,6.7,0,0,1-4.21-1.83h-.05l.11,2.67v4.76h-2.41Zm10.5,6.85c0-3.11-1.16-5.17-4-5.17a6,6,0,0,0-4.12,2.09v7a5.92,5.92,0,0,0,3.74,1.63C667.41,865.06,669.26,863,669.26,859.49Z"/><path class="cls-1" d="M676.57,863l8.7-5.86v-.12l-8.7-5.86v-2.32l10.82,7.31V858l-10.82,7.31Z"/><path class="cls-1" d="M484.35,892.84V891l10.82-7.31V886l-8.7,5.86V892l8.7,5.86v2.32Z"/><path class="cls-1" d="M510.65,880.94h2.15l-9.51,25.24h-2.15Z"/><path class="cls-1" d="M517.41,894.52c0-4.58,3-7.43,6.38-7.43a6,6,0,0,1,4.23,1.8h.06l-.11-2.58v-5.42h2.4v20.65h-2l-.2-1.86h-.09a6.77,6.77,0,0,1-4.61,2.21C519.84,901.89,517.41,899.22,517.41,894.52ZM528,897.77v-7a5.25,5.25,0,0,0-3.69-1.63c-2.43,0-4.41,2.15-4.41,5.37s1.57,5.37,4.15,5.37A5.35,5.35,0,0,0,528,897.77Z"/><path class="cls-1" d="M542.2,889.38h-6.52v-1.94h8.93v14.1H542.2Zm-1-6.75a1.92,1.92,0,1,1,1.91,1.85A1.79,1.79,0,0,1,541.25,882.63Z"/><path class="cls-1" d="M551.92,887.44h2.46l3.25,8c.55,1.42,1.07,2.81,1.57,4.18h.11c.5-1.37,1-2.76,1.54-4.18l3.25-8h2.32l-5.86,14.1h-2.7Z"/><path class="cls-1" d="M571,897.83l8.7-5.86v-.12L571,886v-2.32L581.79,891v1.86L571,900.15Z"/></svg>